<svg width="512" height="512" xmlns="http://www.w3.org/2000/svg">

 <g>
  <title>background</title>
  <rect fill="none" id="canvas_background" height="31.538272" width="31.538272" y="-1" x="-1"/>
 </g>
 <g>
  <title>Layer 1</title>
  <rect stroke-width="3" stroke="#333333" id="svg_1" fill="#CCCCCC" height="19.492" width="122.383" transform="matrix(-0.7072, -0.707, 0.707, -0.7072, 75.6006, 463.217)" y="206.208" x="72.525"/>
  <path stroke-width="3" stroke="#333333" id="svg_2" fill="#E09B2D" d="m114.879997,174.391006c-1.363998,4.587006 -3.859001,8.901001 -7.485001,12.513992l-1.363998,1.377014l-1.376999,1.363998c-11.668999,11.668991 -30.590004,11.668991 -42.272003,0l-53.629996,-53.629013c-11.669,-11.668999 -11.669,-30.590004 0,-42.271996l2.742001,-2.742004c3.625999,-3.625999 7.94,-6.108002 12.526999,-7.472c10.188,-3.080002 21.701,-0.571999 29.745003,7.472l53.629002,53.629005c8.056999,8.057999 10.564995,19.570999 7.484993,29.759003z"/>
  <path id="svg_3" fill="#F7B239" d="m114.879997,174.391006c-10.201004,3.067001 -21.701004,0.559006 -29.757996,-7.485001l-53.629005,-53.628998c-8.043999,-8.044006 -10.552,-19.556999 -7.472,-29.745003c10.188,-3.080002 21.701,-0.571999 29.745003,7.472l53.628998,53.629005c8.057007,8.056992 10.565002,19.569992 7.485001,29.757996z"/>
  <path stroke-width="4" stroke="#333333" id="svg_4" fill="#F95428" d="m161.388,243.626999l350.612,0c0,73.939987 -40.088989,138.524002 -99.735016,173.181015l-111.894989,31.766998l-88.977997,-31.766998c-59.632996,-34.657013 -99.722,-99.240997 -99.722,-173.181l49.718002,-0.000015l0,0z"/>
  <path stroke-width="3" id="svg_5" fill="#E54728" d="m227.328003,243.626999l-65.938995,0l-49.719009,0c0,73.939987 40.089005,138.524002 99.722,173.181015l67.537994,20.072998l48.119995,-20.072998c-59.632996,-34.657013 -99.721985,-99.241028 -99.721985,-173.181015z"/>
  <path stroke-width="3" stroke="#333333" id="svg_6" fill="#E6E6E6" d="m480.149994,416.808014l0,2.781006c0,23.584991 -19.127991,42.713989 -42.713989,42.713989l-251.215012,0c-23.584991,0 -42.714005,-19.127991 -42.714005,-42.713989l0,-2.781006l67.88501,0l200.872986,0l67.88501,0z"/>
  <path stroke-width="3" id="svg_7" fill="#CCCCCC" d="m218.876999,419.588989l0,-2.781006l-7.485001,0l-67.884995,0l0,2.781006c0,23.584991 19.127991,42.713989 42.713989,42.713989l75.37001,0c-23.585007,0.000031 -42.714005,-19.127991 -42.714005,-42.713989z"/>
  <g id="svg_8">
   <path stroke="#333333" id="svg_9" fill="#E6E6E6" d="m318.766998,187.326004c0,5.382004 4.364014,9.746002 9.746002,9.746002c5.381989,0 9.746002,-4.363998 9.746002,-9.746002c0,-34.358994 -9.041992,-51.69101 -17.785004,-68.449997c-8.01001,-15.351997 -15.574005,-29.851997 -15.574005,-59.432999c0,-5.382 -4.363983,-9.746002 -9.746002,-9.746002c-5.381989,0 -9.746002,4.364002 -9.746002,9.746002c0,34.359001 9.042023,51.691002 17.785004,68.449997c8.009003,15.35199 15.574005,29.85199 15.574005,59.432999z"/>
   <path stroke="#333333" id="svg_10" fill="#E6E6E6" d="m261.851013,187.326004c0,5.382004 4.364014,9.746002 9.746002,9.746002c5.381989,0 9.746002,-4.363998 9.746002,-9.746002c0,-31.011993 -8.520996,-47.344009 -16.037994,-61.751999c-7.111023,-13.629997 -13.828003,-26.503998 -13.828003,-52.737c0,-5.381996 -4.364014,-9.746002 -9.746002,-9.746002c-5.382004,0 -9.746002,4.363998 -9.746002,9.746002c0,31.012001 8.520996,47.344002 16.037994,61.753998c7.110992,13.628998 13.828003,26.501999 13.828003,52.735001z"/>
   <path stroke="#333333" id="svg_11" fill="#E6E6E6" d="m372.19101,187.326004c0,5.382004 4.364014,9.746002 9.746002,9.746002c5.381989,0 9.746002,-4.363998 9.746002,-9.746002c0,-31.011993 -8.520996,-47.344009 -16.037994,-61.751999c-7.111023,-13.629997 -13.828003,-26.503998 -13.828003,-52.737c0,-5.381996 -4.364014,-9.746002 -9.746002,-9.746002s-9.746002,4.363998 -9.746002,9.746002c0,31.012001 8.520996,47.344002 16.037994,61.753998c7.110992,13.628998 13.828003,26.501999 13.828003,52.735001z"/>
  </g>
  <g id="svg_12"/>
  <g id="svg_13"/>
  <g id="svg_14"/>
  <g id="svg_15"/>
  <g id="svg_16"/>
  <g id="svg_17"/>
  <g id="svg_18"/>
  <g id="svg_19"/>
  <g id="svg_20"/>
  <g id="svg_21"/>
  <g id="svg_22"/>
  <g id="svg_23"/>
  <g id="svg_24"/>
  <g id="svg_25"/>
  <g id="svg_26"/>
 </g>
</svg>