<svg width="493.81698" height="481.81699" xmlns="http://www.w3.org/2000/svg">
 <metadata id="metadata75">image/svg+xml</metadata>

 <g>
  <title>background</title>
  <rect fill="none" id="canvas_background" height="483.81699" width="495.81698" y="-1" x="-1"/>
 </g>
 <g>
  <title>Layer 1</title>
  <path stroke-width="2" stroke="#333333" fill="#995c0d" d="m141.419983,77.700989c-0.126999,0 -0.251999,-0.003998 -0.378998,-0.011002c-3.419998,-0.205994 -6.029007,-3.141998 -5.832001,-6.560997c0.065002,-1.210999 1.237991,-28.895 -23.583008,-37.168999c-3.256996,-1.087002 -5.017998,-4.606001 -3.931999,-7.864002c1.087006,-3.257 4.606003,-5.018999 7.864006,-3.931999c27.182999,9.061001 32.858994,36.466999 32.063995,49.691998c-0.201996,3.303001 -2.938995,5.845001 -6.201996,5.845001z" id="path10"/>
  <path stroke-width="2" stroke="#333333" fill="#cc2105" d="m377.279999,166.894989l-39.372986,311.921997l-151.803009,0l-39.375,-311.946991c0,0 16.819992,-39.833992 44.141998,-39.833992l142.270996,0c27.321014,0 44.138,39.859001 44.138,39.859001l0,-0.000015z" id="path12"/>
  <polygon stroke-width="2" stroke="#333333" fill="#a01102" points="210.38499355316162,166.87099415527337 211.52899074554443,187.07399708496087 213.69200038909912,225.4279857324218 219.89599514007568,335.0710063623046 222.05999660491943,373.40099293457024 228.02699184417725,478.8169780419921 186.10398769378662,478.8169780419921 172.80198574066162,373.40099293457024 167.9649953842163,335.0710063623046 154.11498928070068,225.4279857324218 149.27899074554443,187.07399708496087 146.72999477386475,166.87099415527337 " id="polygon14"/>
  <polygon stroke-width="2" stroke="#333333" fill="#b27214" points="304.83598232269287,108.77299458251946 317.6039876937866,-0.0000080419922596775 353.409987449646,4.201992099151539 341.138991355896,108.77299458251946 321.85600185394287,125.79299122558587 " id="polygon16"/>
  <path stroke-width="2" stroke="#333333" fill="#e6e6e6" d="m359.153992,108.772987l-18.015015,0l-157.172989,0c-16.274002,12.358002 -24.535004,23.026009 -39.847,37.396996l2.611008,20.700012l151.279984,0l17.007996,-6.888l19.295013,6.888l18.015015,0l24.765991,0l0.186005,0.024994l7.334991,-58.122002c0.001007,0 -25.460999,0 -25.460999,0z" id="path18"/>
  <polygon fill="#995c0d" points="298.0099935531616,166.87099415527337 304.83598232269287,108.77299458251946 341.138991355896,108.77299458251946 334.31397914886475,166.87099415527337 318.5399923324585,166.87099415527337 " id="polygon20"/>
  <path stroke-width="2" stroke="#333333" fill="#f7b239" d="m185.599991,101.213982c0,2.573997 -0.210999,5.097 -0.634003,7.558998l-39.847,37.397003c-1.554001,0.162003 -3.132996,0.248993 -4.723999,0.248993c-24.964996,0 -45.193001,-20.239998 -45.193001,-45.204994c0,-24.964989 20.228004,-45.192993 45.193001,-45.192993c24.964996,0 45.205002,20.228004 45.205002,45.192993z" id="path22"/>
  <path stroke-width="2" stroke="#333333" fill="#e09b2d" d="m183.965988,108.77298l-44.570999,0l3.701996,29.311005c-1.90799,-1.355011 -3.707001,-2.856003 -5.380997,-4.484009c-0.143997,-0.139999 -0.296005,-0.274994 -0.438995,-0.417999c-0.126007,-0.125992 -0.242004,-0.257004 -0.365997,-0.384003c-7.959,-8.145996 -12.871002,-19.28199 -12.871002,-31.570992c0,-0.001999 0,-0.005005 0,-0.007004c0,-0.000999 0,-0.003998 0,-0.004997c0,-0.019005 0.000999,-0.037003 0.000999,-0.055c0.000999,-0.698997 0.020996,-1.39399 0.051994,-2.084991c0.011002,-0.235001 0.030006,-0.469002 0.044006,-0.701996c0.029999,-0.471001 0.062996,-0.941002 0.106995,-1.407005c0.027,-0.292999 0.060005,-0.585999 0.092003,-0.877998c0.042,-0.369003 0.087997,-0.736 0.139999,-1.102997c0.053001,-0.385002 0.109001,-0.768005 0.171997,-1.150002c0.009003,-0.055 0.014999,-0.111 0.025002,-0.165001l0.006004,-0.004997c2.754997,-16.376007 14.310997,-29.752003 29.639,-35.111004c-4.667999,-1.634998 -9.684006,-2.529999 -14.91301,-2.529999c-0.001999,0 -0.003998,0 -0.005997,0c-0.001999,0 -0.003998,0 -0.005997,0c-22.389999,0 -40.958,16.273998 -44.552002,37.641003l-0.004997,0.003998c-0.010002,0.055 -0.014999,0.111 -0.025002,0.165001c-0.061996,0.381996 -0.117996,0.765999 -0.171997,1.150002c-0.051003,0.365997 -0.098,0.733994 -0.139999,1.102997c-0.034004,0.292 -0.065002,0.584 -0.092003,0.877998c-0.043999,0.467003 -0.078003,0.936005 -0.107002,1.406998c-0.014999,0.234001 -0.033997,0.467003 -0.043999,0.702003c-0.031998,0.691002 -0.052002,1.385986 -0.052002,2.084991c0,0.018997 -0.000999,0.036995 -0.000999,0.055c0,0.000999 0,0.003998 0,0.004997c0,0.001999 0,0.005005 0,0.007004c0,12.290001 4.912003,23.425995 12.871002,31.570999c0.123001,0.126999 0.240997,0.259003 0.365997,0.384003c0.143005,0.14299 0.292999,0.276993 0.439003,0.417999c8.140999,7.927994 19.252998,12.819 31.517006,12.819c0.001999,0 0.003998,0 0.005997,0c0.001999,0 0.003998,0 0.005997,0c1.593002,0 3.162003,-0.094009 4.710999,-0.255997l0.001007,0.006989c0.067001,-0.006989 0.133987,-0.018997 0.200989,-0.026001c0.093002,-0.009995 0.188004,-0.013992 0.281006,-0.024994c0.041,-0.005005 0.072998,-0.018997 0.112,-0.024994c19.962997,-2.337006 35.951996,-17.673004 39.251999,-37.320007z" id="path24"/>
  <g id="g38">
   <circle fill="#a01102" cx="311.076983" cy="324.714992" r="9.324005" id="circle30"/>
   <circle fill="#a01102" cx="302.237993" cy="232.389992" r="9.323997" id="circle32"/>
   <circle fill="#a01102" cx="238.967983" cy="345.439992" r="9.323997" id="circle34"/>
   <circle fill="#a01102" cx="279.410993" cy="410.437982" r="9.324005" id="circle36"/>
  </g>
  <g id="g40"/>
  <g id="g42"/>
  <g id="g44"/>
  <g id="g46"/>
  <g id="g48"/>
  <g id="g50"/>
  <g id="g52"/>
  <g id="g54"/>
  <g id="g56"/>
  <g id="g58"/>
  <g id="g60"/>
  <g id="g62"/>
  <g id="g64"/>
  <g id="g66"/>
  <g id="g68"/>
 </g>
</svg>