<svg width="68" height="62.00000000000001" xmlns="http://www.w3.org/2000/svg">
 <metadata id="metadata424">image/svg+xml</metadata>

 <style type="text/css">.st0{fill:#16A085;}
	.st1{fill:#1ABC9C;}
	.st2{fill:#ECF0F1;}
	.st3{fill:#F39C12;}
	.st4{fill:#F1C40F;}</style>
 <g>
  <title>background</title>
  <rect x="-1" y="-1" width="52.370376" height="47.925931" id="canvas_background" fill="none"/>
 </g>
 <g>
  <title>Layer 1</title>
  <g id="XMLID_1_">
   <rect height="37.900002" width="65" class="st0" y="7.025202" x="1.463414" id="XMLID_3_" fill="#16a085" stroke="#333333"/>
   <rect height="37.900002" width="65" class="st1" y="9.725203" x="1.463414" id="XMLID_4_" fill="#1abc9c" stroke="#333333"/>
   <path stroke-width="0" d="m14.963414,12.425203l0,0c0,6 -4.900001,10.799999 -10.799999,10.799999l0,10.6c6,0 10.799999,4.900002 10.799999,11.099998l37.999999,0l0,-0.199997c0,-6 4.900002,-10.800003 10.800003,-10.800003l0,-10.6c-6,0 -10.800003,-4.899998 -10.800003,-10.799999l-37.999999,0l0,-0.099998l0,-0.000001z" class="st2" id="XMLID_5_" fill="#ecf0f1" stroke="#333333"/>
   <ellipse stroke-width="0" ry="13.5" rx="10.8" cy="28.725203" cx="33.963414" class="st1" id="XMLID_6_" fill="#1abc9c" stroke="#333333"/>
   <path stroke-width="0" d="m29.263414,22.425203l6.699999,-1.900002l0.700001,0l0,13.499998c0,0.800003 0.099998,1.400002 0.200001,1.599998c0.099998,0.300003 0.399998,0.300003 0.799999,0.5l2.5,0l0,0.5l-10.4,0l0,-0.5l2.499998,0c0.400002,-0.299995 0.599998,-0.299995 0.799999,-0.5c0.100002,-0.299995 0.200001,-0.799995 0.200001,-1.599998l0,-8.699999c0,-1.399998 -0.099998,-1.899998 -0.200001,-2.399998c-0.099998,-0.300003 -0.299999,-0.300003 -0.5,-0.5l-0.899996,0c-0.5,0 -1.200001,0 -2.100002,0.299999l-0.299999,-0.299999" class="st2" id="XMLID_7_" fill="#ecf0f1" stroke="#333333"/>
   <path stroke-width="0" d="m12.263413,50.325203c-2.400001,0 -4.400001,0.5 -5.900001,1.400002l-2.200001,0l0,0.799995l0,0.400002l0,0.200005l0,0.199997l0,1.199997c0,2.200005 3.6,4.100006 8.100001,4.100006c4.500001,0 8.100003,-1.800003 8.100003,-4.100006l0,-1.199997l0,-0.199997l0,-0.200005l0,-0.399994l0,-0.800003l-2.200001,0c-1.400003,-0.900002 -3.500002,-1.400002 -5.900002,-1.400002z" class="st3" id="XMLID_8_" fill="#f39c12" stroke="#666666"/>
   <ellipse stroke-width="0" ry="4.1" rx="8.1" cy="51.625205" cx="12.263413" class="st4" id="XMLID_9_" fill="#f1c40f" stroke="#333333"/>
   <path stroke-width="0" d="m12.263413,44.825203c-2.400001,0 -4.400001,0.5 -5.900001,1.399994l-2.200001,0l0,0.800003l0,0.400002l0,0.199997l0,0.099998l0,1.200005c0,2.200005 3.6,4.099998 8.100001,4.099998c4.500001,0 8.100003,-1.799995 8.100003,-4.099998l0,-1.199997l0,-0.200005l0,-0.199997l0,-0.400002l0,-0.799995l-2.200001,0c-1.400003,-0.700005 -3.500002,-1.300003 -5.900002,-1.300003l0,0z" class="st3" id="XMLID_10_" fill="#f39c12" stroke="#666666"/>
   <ellipse stroke-width="0" ry="4.1" rx="8.1" cy="46.225203" cx="12.263413" class="st4" id="XMLID_11_" fill="#f1c40f" stroke="#333333"/>
   <path stroke-width="0" d="m12.263413,39.425201c-2.400001,0 -4.400001,0.5 -5.900001,1.400002l-2.200001,0l0,0.800003l0,0.399994l0,0.200005l0,0.199997l0,1.200005c0,2.199997 3.6,4.099998 8.100001,4.099998c4.500001,0 8.100003,-1.800003 8.100003,-4.099998l0,-1.200005l0,-0.199997l0,-0.200005l0,-0.399994l0,-0.800003l-2.200001,0c-1.400003,-0.800003 -3.500002,-1.400002 -5.900002,-1.400002z" class="st3" id="XMLID_12_" fill="#f39c12" stroke="#333333"/>
   <ellipse stroke-width="0" ry="4.1" rx="8.1" cy="40.825201" cx="12.263413" class="st4" id="XMLID_13_" fill="#f1c40f" stroke="#333333"/>
   <path stroke-width="0" d="m12.263413,34.0252c-2.400001,0 -4.400001,0.5 -5.900001,1.400002l-2.200001,0l0,0.800003l0,0.399994l0,0.100006l0,0.199997l0,1.199997c0,2.200005 3.6,4.100006 8.100001,4.100006c4.500001,0 8.100003,-1.800003 8.100003,-4.100006l0,-1.199997l0,-0.199997l0,-0.200005l0,-0.399994l0,-0.800003l-2.200001,0c-1.400003,-0.700005 -3.500002,-1.300003 -5.900002,-1.300003z" class="st3" id="XMLID_14_" fill="#f39c12" stroke="#333333"/>
   <ellipse stroke-width="0" ry="4.1" rx="8.1" cy="35.325201" cx="12.263413" class="st4" id="XMLID_15_" fill="#f1c40f" stroke="#333333"/>
   <path stroke-width="0" d="m31.263414,50.325203c-2.400002,0 -4.400002,0.5 -5.900002,1.400002l-2.199997,0l0,0.799995l0,0.400002l0,0.200005l0,0.199997l0,1.199997c0,2.200005 3.599997,4.100006 8.099998,4.100006c4.499998,0 8.1,-1.800003 8.1,-4.100006l0,-1.199997l0,-0.199997l0,-0.200005l0,-0.399994l0,-0.800003l-2.200001,0c-1.5,-0.900002 -3.5,-1.400002 -5.900002,-1.400002l0.000002,0z" class="st3" id="XMLID_16_" fill="#f39c12" stroke="#333333"/>
   <ellipse stroke-width="0" ry="4.1" rx="8.1" cy="51.625205" cx="31.263413" class="st4" id="XMLID_17_" fill="#f1c40f" stroke="#333333"/>
   <path stroke-width="0" d="m36.663414,47.625206c-2.400002,0 -4.400002,0.5 -5.9,1.400002l-2.199997,0l0,0.699997l0,0.400002l0,0.199997l0,0.200005l0,1.199997c0,2.200008 3.599997,4.099998 8.099997,4.099998c4.5,0 8.099998,-1.799995 8.099998,-4.099998l0,-1.199997l0,-0.200005l0,-0.199997l0,-0.400002l0,-0.800003l-2.199997,0c-1.400002,-0.800003 -3.5,-1.300003 -5.900002,-1.300003l0,0.000008z" class="st3" id="XMLID_18_" fill="#f39c12" stroke="#333333"/>
   <ellipse stroke-width="0" ry="4.1" rx="8.1" cy="48.79275" cx="36.663415" class="st4" id="XMLID_19_" fill="#f1c40f" stroke="#333333"/>
   <path stroke-width="0" d="m12.263413,28.625204c-2.400001,0 -4.400001,0.5 -5.900001,1.400002l-2.200001,0l0,0.699997l0,0.400002l0,0.200003l0,0.200001l0,1.199997c0,2.199997 3.6,4.099998 8.100001,4.099998c4.500001,0 8.100003,-1.799995 8.100003,-4.099998l0,-1.200001l0,-0.200001l0,-0.199999l0,-0.400002l0,-0.799999l-2.200001,0c-1.400003,-0.799999 -3.500002,-1.299999 -5.900002,-1.299999z" class="st3" id="XMLID_20_" fill="#f39c12" stroke="#333333"/>
   <ellipse stroke-width="0" ry="4.1" rx="8.1" cy="29.925204" cx="12.263413" class="st4" id="XMLID_21_" fill="#f1c40f" stroke="#333333"/>
  </g>
 </g>
</svg>