<?xml version="1.0" encoding="UTF-8" standalone="no"?>
<!-- Generator: Adobe Illustrator 18.0.0, SVG Export Plug-In . SVG Version: 6.00 Build 0)  -->

<svg
   xmlns:dc="http://purl.org/dc/elements/1.1/"
   xmlns:cc="http://creativecommons.org/ns#"
   xmlns:rdf="http://www.w3.org/1999/02/22-rdf-syntax-ns#"
   xmlns:svg="http://www.w3.org/2000/svg"
   xmlns="http://www.w3.org/2000/svg"
   xmlns:sodipodi="http://sodipodi.sourceforge.net/DTD/sodipodi-0.dtd"
   xmlns:inkscape="http://www.inkscape.org/namespaces/inkscape"
   version="1.1"
   id="Capa_1"
   x="0px"
   y="0px"
   viewBox="0 0 58 58"
   style="enable-background:new 0 0 58 58;"
   xml:space="preserve"
   inkscape:version="0.91 r13725"
   sodipodi:docname="fatura.svg"><metadata
     id="metadata4449"><rdf:RDF><cc:Work
         rdf:about=""><dc:format>image/svg+xml</dc:format><dc:type
           rdf:resource="http://purl.org/dc/dcmitype/StillImage" /></cc:Work></rdf:RDF></metadata><defs
     id="defs4447" /><sodipodi:namedview
     pagecolor="#ffffff"
     bordercolor="#666666"
     borderopacity="1"
     objecttolerance="10"
     gridtolerance="10"
     guidetolerance="10"
     inkscape:pageopacity="0"
     inkscape:pageshadow="2"
     inkscape:window-width="1366"
     inkscape:window-height="744"
     id="namedview4445"
     showgrid="false"
     inkscape:zoom="8.137931"
     inkscape:cx="47.940725"
     inkscape:cy="24.578027"
     inkscape:window-x="0"
     inkscape:window-y="24"
     inkscape:window-maximized="1"
     inkscape:current-layer="g4381" /><g
     id="g4381"><path
       style="fill:#3D465B;"
       d="M55,0.5H3c-1.65,0-3,1.35-3,3c0,1.65,1.35,3,3,3v-3h52v3c1.65,0,3-1.35,3-3   C58,1.85,56.65,0.5,55,0.5z"
       id="path4383" /><polygon
       style="fill:#F0EDE0;opacity:0.48000002;stroke-width:0.2;stroke-miterlimit:4;stroke-dasharray:none;stroke:#000000;stroke-opacity:1"
       points="5,51.5 11,57.5 17,51.5 23,57.5 29,51.5 35,57.5 41,51.5 47,57.5 53,51.5 55,53.5 55,3.5    3,3.5 3,53.5  "
       id="polygon4385" /><path
       style="fill:#D4C3A5;"
       d="M43,41.5H28c-0.552,0-1-0.447-1-1s0.448-1,1-1h15c0.552,0,1,0.447,1,1S43.552,41.5,43,41.5z"
       id="path4387" /><path
       style="fill:#D4C3A5;"
       d="M48,41.5c-0.26,0-0.52-0.11-0.71-0.29C47.11,41.02,47,40.76,47,40.5c0-0.271,0.11-0.521,0.29-0.71   c0.38-0.37,1.04-0.37,1.42,0C48.89,39.979,49,40.229,49,40.5c0,0.26-0.11,0.52-0.29,0.71C48.52,41.39,48.26,41.5,48,41.5z"
       id="path4389" /><path
       style="fill:#D4C3A5;"
       d="M48,27.5H33c-0.552,0-1-0.447-1-1s0.448-1,1-1h15c0.552,0,1,0.447,1,1S48.552,27.5,48,27.5z"
       id="path4391" /><path
       style="fill:#D4C3A5;"
       d="M48,34.5H38c-0.552,0-1-0.447-1-1s0.448-1,1-1h10c0.552,0,1,0.447,1,1S48.552,34.5,48,34.5z"
       id="path4393" /><path
       style="fill:#D4C3A5;"
       d="M30,34.5h-2c-0.552,0-1-0.447-1-1s0.448-1,1-1h2c0.552,0,1,0.447,1,1S30.552,34.5,30,34.5z"
       id="path4395" /><path
       style="fill:#D4C3A5;"
       d="M43,20.5H28c-0.552,0-1-0.447-1-1s0.448-1,1-1h15c0.552,0,1,0.447,1,1S43.552,20.5,43,20.5z"
       id="path4397" /><path
       style="fill:#D4C3A5;"
       d="M48,20.5c-0.26,0-0.52-0.11-0.71-0.29C47.11,20.02,47,19.76,47,19.5c0-0.271,0.11-0.521,0.29-0.71   c0.37-0.37,1.05-0.37,1.42,0C48.89,18.979,49,19.24,49,19.5s-0.11,0.52-0.29,0.71C48.52,20.39,48.27,20.5,48,20.5z"
       id="path4399" /><path
       style="fill:#D4C3A5;"
       d="M29,27.5c-0.26,0-0.52-0.11-0.71-0.29C28.11,27.02,28,26.77,28,26.5c0-0.271,0.11-0.521,0.29-0.71   c0.38-0.37,1.05-0.37,1.42,0C29.89,25.979,30,26.229,30,26.5c0,0.27-0.11,0.52-0.29,0.71C29.52,27.39,29.26,27.5,29,27.5z"
       id="path4401" /><path
       style="fill:#D4C3A5;"
       d="M34,34.5c-0.26,0-0.52-0.11-0.71-0.29C33.11,34.02,33,33.76,33,33.5s0.11-0.521,0.29-0.71   c0.38-0.37,1.05-0.37,1.42,0C34.89,32.97,35,33.229,35,33.5c0,0.27-0.11,0.52-0.29,0.71C34.52,34.39,34.26,34.5,34,34.5z"
       id="path4403" /><path
       style="fill:#24AE5F;"
       d="M18,25.5c0,0.553,0.448,1,1,1s1-0.447,1-1c0-2.414-1.721-4.434-4-4.899V19.5c0-0.553-0.448-1-1-1   s-1,0.447-1,1v1.104c-1.091,0.222-2.085,0.801-2.818,1.668c-0.611,0.722-0.894,1.646-0.794,2.603   c0.102,0.979,0.606,1.887,1.383,2.491L14,29.1v5.438c-1.161-0.414-2-1.514-2-2.816c0-0.553-0.448-1-1-1s-1,0.447-1,1   c0,2.414,1.721,4.434,4,4.899V37.5c0,0.553,0.448,1,1,1s1-0.447,1-1v-0.882c1.091-0.222,2.085-0.801,2.819-1.668   c0.611-0.724,0.893-1.648,0.793-2.605c-0.103-0.978-0.606-1.885-1.383-2.488L16,28.123v-5.438C17.161,23.098,18,24.198,18,25.5z    M17.001,31.435c0.349,0.271,0.576,0.68,0.622,1.118c0.043,0.41-0.075,0.803-0.331,1.105c-0.348,0.411-0.798,0.699-1.292,0.875   v-3.878L17.001,31.435z M12.999,25.788c-0.35-0.272-0.576-0.681-0.622-1.12c-0.042-0.409,0.075-0.801,0.331-1.104   c0.348-0.411,0.798-0.699,1.292-0.875v3.877L12.999,25.788z"
       id="path4405" /><g
       id="g4407"><path
         style="fill:#A5A5A4;"
         d="M6,11.5c-0.26,0-0.52-0.11-0.71-0.29C5.11,11.02,5,10.76,5,10.5s0.11-0.521,0.29-0.71    c0.38-0.37,1.05-0.37,1.42,0C6.89,9.979,7,10.24,7,10.5s-0.11,0.52-0.29,0.71C6.52,11.39,6.26,11.5,6,11.5z"
         id="path4409" /><path
         style="fill:#A5A5A4;"
         d="M47.17,10.5c0-0.55,0.44-1,1-1l0,0c0.55,0,1,0.45,1,1l0,0c0,0.55-0.45,1-1,1l0,0    C47.61,11.5,47.17,11.05,47.17,10.5z M43.33,10.5c0-0.55,0.45-1,1-1l0,0c0.56,0,1,0.45,1,1l0,0c0,0.55-0.44,1-1,1l0,0    C43.78,11.5,43.33,11.05,43.33,10.5z M39.5,10.5c0-0.55,0.45-1,1-1l0,0c0.55,0,1,0.45,1,1l0,0c0,0.55-0.45,1-1,1l0,0    C39.95,11.5,39.5,11.05,39.5,10.5z M35.67,10.5c0-0.55,0.44-1,1-1l0,0c0.55,0,1,0.45,1,1l0,0c0,0.55-0.45,1-1,1l0,0    C36.11,11.5,35.67,11.05,35.67,10.5z M31.83,10.5c0-0.55,0.45-1,1-1l0,0c0.56,0,1,0.45,1,1l0,0c0,0.55-0.44,1-1,1l0,0    C32.28,11.5,31.83,11.05,31.83,10.5z M28,10.5c0-0.55,0.45-1,1-1l0,0c0.55,0,1,0.45,1,1l0,0c0,0.55-0.45,1-1,1l0,0    C28.45,11.5,28,11.05,28,10.5z M24.17,10.5c0-0.55,0.44-1,1-1l0,0c0.55,0,1,0.45,1,1l0,0c0,0.55-0.45,1-1,1l0,0    C24.61,11.5,24.17,11.05,24.17,10.5z M20.33,10.5c0-0.55,0.45-1,1-1l0,0c0.56,0,1,0.45,1,1l0,0c0,0.55-0.44,1-1,1l0,0    C20.78,11.5,20.33,11.05,20.33,10.5z M16.5,10.5c0-0.55,0.45-1,1-1l0,0c0.55,0,1,0.45,1,1l0,0c0,0.55-0.45,1-1,1l0,0    C16.95,11.5,16.5,11.05,16.5,10.5z M12.67,10.5c0-0.55,0.44-1,1-1l0,0c0.55,0,1,0.45,1,1l0,0c0,0.55-0.45,1-1,1l0,0    C13.11,11.5,12.67,11.05,12.67,10.5z M8.83,10.5c0-0.55,0.45-1,1-1l0,0c0.56,0,1,0.45,1,1l0,0c0,0.55-0.44,1-1,1l0,0    C9.28,11.5,8.83,11.05,8.83,10.5z"
         id="path4411" /><path
         style="fill:#A5A5A4;"
         d="M52,11.5c-0.27,0-0.52-0.11-0.71-0.3C51.11,11.02,51,10.76,51,10.5s0.11-0.521,0.29-0.71    c0.36-0.37,1.04-0.37,1.42,0C52.89,9.979,53,10.24,53,10.5s-0.11,0.52-0.29,0.71C52.52,11.39,52.26,11.5,52,11.5z"
         id="path4413" /></g></g><g
     id="g4415" /><g
     id="g4417" /><g
     id="g4419" /><g
     id="g4421" /><g
     id="g4423" /><g
     id="g4425" /><g
     id="g4427" /><g
     id="g4429" /><g
     id="g4431" /><g
     id="g4433" /><g
     id="g4435" /><g
     id="g4437" /><g
     id="g4439" /><g
     id="g4441" /><g
     id="g4443" /></svg>