<?xml version="1.0" encoding="UTF-8" standalone="no"?>
<!-- Generator: Adobe Illustrator 19.0.0, SVG Export Plug-In . SVG Version: 6.00 Build 0)  -->

<svg
   xmlns:dc="http://purl.org/dc/elements/1.1/"
   xmlns:cc="http://creativecommons.org/ns#"
   xmlns:rdf="http://www.w3.org/1999/02/22-rdf-syntax-ns#"
   xmlns:svg="http://www.w3.org/2000/svg"
   xmlns="http://www.w3.org/2000/svg"
   xmlns:sodipodi="http://sodipodi.sourceforge.net/DTD/sodipodi-0.dtd"
   xmlns:inkscape="http://www.inkscape.org/namespaces/inkscape"
   version="1.1"
   id="Layer_1"
   x="0px"
   y="0px"
   viewBox="0 0 698 512"
   xml:space="preserve"
   inkscape:version="0.91 r13725"
   sodipodi:docname="grupoonly.svg"
   width="698"
   height="512"><metadata
     id="metadata3482"><rdf:RDF><cc:Work
         rdf:about=""><dc:format>image/svg+xml</dc:format><dc:type
           rdf:resource="http://purl.org/dc/dcmitype/StillImage" /><dc:title></dc:title></cc:Work></rdf:RDF></metadata><defs
     id="defs3480" /><sodipodi:namedview
     pagecolor="#ffffff"
     bordercolor="#666666"
     borderopacity="1"
     objecttolerance="10"
     gridtolerance="10"
     guidetolerance="10"
     inkscape:pageopacity="0"
     inkscape:pageshadow="2"
     inkscape:window-width="1366"
     inkscape:window-height="744"
     id="namedview3478"
     showgrid="false"
     inkscape:zoom="0.59277344"
     inkscape:cx="395.54383"
     inkscape:cy="274.70352"
     inkscape:window-x="0"
     inkscape:window-y="24"
     inkscape:window-maximized="1"
     inkscape:current-layer="Layer_1"
     fit-margin-top="0" /><g
     id="g3430"
     transform="matrix(1.0197953,0,0,1.0444333,87.890689,-11.374403)"
     style="stroke:#000000;stroke-width:0.67247093;stroke-miterlimit:4;stroke-dasharray:none;stroke-opacity:1"><path
       style="fill:#2e9ada;stroke:#000000;stroke-width:0.67247093;stroke-miterlimit:4;stroke-dasharray:none;stroke-opacity:1"
       d="m 415.289,245.262 c -37.127,0 -67.333,-30.206 -67.333,-67.333 0,-37.127 30.206,-67.333 67.333,-67.333 37.127,0 67.333,30.206 67.333,67.333 -0.001,37.127 -30.206,67.333 -67.333,67.333 z"
       id="path3432"
       inkscape:connector-curvature="0" /><path
       style="fill:#2e9ada;stroke:#000000;stroke-width:0.67247093;stroke-miterlimit:4;stroke-dasharray:none;stroke-opacity:1"
       d="m 494.933,401.403 -159.289,0 c -9.425,0 -17.067,-7.641 -17.067,-17.067 l 0,-30.893 c 0,-53.327 43.385,-96.711 96.711,-96.711 53.326,0 96.712,43.385 96.712,96.712 l 0,30.893 c 0,9.425 -7.641,17.066 -17.067,17.066 z"
       id="path3434"
       inkscape:connector-curvature="0" /></g><g
     id="g3436"
     transform="matrix(1.0197953,0,0,1.0444333,90.323689,-11.374403)"
     style="stroke:#000000;stroke-width:0.50885272;stroke-miterlimit:4;stroke-dasharray:none;stroke-opacity:1"><path
       style="fill:#60bfe1;stroke:#000000;stroke-width:0.50885272;stroke-miterlimit:4;stroke-dasharray:none;stroke-opacity:1"
       d="m 256,245.262 c -37.127,0 -67.333,-30.206 -67.333,-67.333 0,-37.127 30.206,-67.333 67.333,-67.333 37.127,0 67.333,30.206 67.333,67.333 0,37.127 -30.206,67.333 -67.333,67.333 z"
       id="path3438"
       inkscape:connector-curvature="0" /><path
       style="fill:#60bfe1;stroke:#000000;stroke-width:0.50885272;stroke-miterlimit:4;stroke-dasharray:none;stroke-opacity:1"
       d="m 335.644,401.403 -159.288,0 c -9.425,0 -17.067,-7.641 -17.067,-17.067 l 0,-30.893 c 0,-53.327 43.385,-96.711 96.711,-96.711 53.326,0 96.711,43.385 96.711,96.711 l 0,30.893 c 0,9.426 -7.641,17.067 -17.067,17.067 z"
       id="path3440"
       inkscape:connector-curvature="0" /></g><g
     id="g3442"
     transform="matrix(1.0197953,0,0,1.0444333,87.890689,-11.374403)"
     style="stroke:#000000;stroke-width:0.50885272;stroke-miterlimit:4;stroke-dasharray:none;stroke-opacity:1"><path
       style="fill:#c7e5f4;stroke:#000000;stroke-width:0.50885272;stroke-miterlimit:4;stroke-dasharray:none;stroke-opacity:1"
       d="m 96.711,245.262 c -37.127,0 -67.333,-30.206 -67.333,-67.333 0,-37.127 30.206,-67.333 67.333,-67.333 37.127,0 67.333,30.206 67.333,67.333 0,37.127 -30.206,67.333 -67.333,67.333 z"
       id="path3444"
       inkscape:connector-curvature="0" /><path
       style="fill:#c7e5f4;stroke:#000000;stroke-width:0.50885272;stroke-miterlimit:4;stroke-dasharray:none;stroke-opacity:1"
       d="m 176.356,401.403 -159.289,0 C 7.641,401.403 0,393.762 0,384.337 l 0,-30.893 c 0,-53.327 43.385,-96.711 96.711,-96.711 53.326,0 96.711,43.385 96.711,96.711 l 0,30.893 c 0,9.425 -7.641,17.066 -17.066,17.066 z"
       id="path3446"
       inkscape:connector-curvature="0" /></g><g
     id="g3448"
     transform="matrix(0.60392702,0,0,0.61851773,347.8065,227.0866)" /><g
     id="g3450"
     transform="matrix(0.60392702,0,0,0.61851773,347.8065,227.0866)" /><g
     id="g3452"
     transform="matrix(0.60392702,0,0,0.61851773,347.8065,227.0866)" /><g
     id="g3454"
     transform="matrix(0.60392702,0,0,0.61851773,347.8065,227.0866)" /><g
     id="g3456"
     transform="matrix(0.60392702,0,0,0.61851773,347.8065,227.0866)" /><g
     id="g3458"
     transform="matrix(0.60392702,0,0,0.61851773,347.8065,227.0866)" /><g
     id="g3460"
     transform="matrix(0.60392702,0,0,0.61851773,347.8065,227.0866)" /><g
     id="g3462"
     transform="matrix(0.60392702,0,0,0.61851773,347.8065,227.0866)" /><g
     id="g3464"
     transform="matrix(0.60392702,0,0,0.61851773,347.8065,227.0866)" /><g
     id="g3466"
     transform="matrix(0.60392702,0,0,0.61851773,347.8065,227.0866)" /><g
     id="g3468"
     transform="matrix(0.60392702,0,0,0.61851773,347.8065,227.0866)" /><g
     id="g3470"
     transform="matrix(0.60392702,0,0,0.61851773,347.8065,227.0866)" /><g
     id="g3472"
     transform="matrix(0.60392702,0,0,0.61851773,347.8065,227.0866)" /><g
     id="g3474"
     transform="matrix(0.60392702,0,0,0.61851773,347.8065,227.0866)" /><g
     id="g3476"
     transform="matrix(0.60392702,0,0,0.61851773,347.8065,227.0866)" /></svg>