<?xml version="1.0" encoding="UTF-8" standalone="no"?>
<svg
   xmlns:dc="http://purl.org/dc/elements/1.1/"
   xmlns:cc="http://creativecommons.org/ns#"
   xmlns:rdf="http://www.w3.org/1999/02/22-rdf-syntax-ns#"
   xmlns:svg="http://www.w3.org/2000/svg"
   xmlns="http://www.w3.org/2000/svg"
   xmlns:sodipodi="http://sodipodi.sourceforge.net/DTD/sodipodi-0.dtd"
   xmlns:inkscape="http://www.inkscape.org/namespaces/inkscape"
   height="277.5"
   width="277.5"
   xml:space="preserve"
   viewBox="0 0 277.5 277.50001"
   y="0px"
   x="0px"
   id="Layer_2"
   version="1.1"
   inkscape:version="0.91 r13725"
   sodipodi:docname="multibanco2.svg"><sodipodi:namedview
     pagecolor="#ffffff"
     bordercolor="#666666"
     borderopacity="1"
     objecttolerance="10"
     gridtolerance="10"
     guidetolerance="10"
     inkscape:pageopacity="0"
     inkscape:pageshadow="2"
     inkscape:window-width="1366"
     inkscape:window-height="744"
     id="namedview3452"
     showgrid="false"
     inkscape:zoom="2.1873874"
     inkscape:cx="71.089374"
     inkscape:cy="97.977237"
     inkscape:window-x="0"
     inkscape:window-y="24"
     inkscape:window-maximized="1"
     inkscape:current-layer="g34" /><metadata
     id="metadata67"><rdf:RDF><cc:Work
         rdf:about=""><dc:format>image/svg+xml</dc:format><dc:type
           rdf:resource="http://purl.org/dc/dcmitype/StillImage" /><dc:title></dc:title></cc:Work></rdf:RDF></metadata><defs
     id="defs65" /><style
     id="style2"
     type="text/css">
	.st0{fill:#676868;}
	.st1{fill:#FFFFFF;}
	.st2{fill:#E5E5E5;}
	.st3{fill:#B4B2B4;}
	.st4{fill:#ED7061;}
	.st5{fill:#FFCC68;}
	.st6{fill:#F68637;}
	.st7{opacity:0.26;fill:#848484;enable-background:new    ;}
</style><g
     transform="translate(-11.5,37.95)"
     id="g60"><g
       id="g51"><g
         id="Band_3_"><g
           id="g6"><rect
             style="fill:#676868"
             id="rect4"
             height="20.700001"
             width="165.60001"
             class="st0"
             y="79.099998"
             x="11.5" /></g></g><g
         id="Container"><g
           id="g11"><path
             style="fill:#ffffff"
             id="path9"
             d="M 151.2,120.5 H 37.4 c -2.9,0 -5.2,2.3 -5.2,5.2 v 20.7 c 0,2.9 2.3,5.2 5.2,5.2 h 113.9 c 2.9,0 5.2,-2.3 5.2,-5.2 v -20.7 c -0.1,-2.8 -2.4,-5.2 -5.3,-5.2 z"
             class="st1" /></g></g><g
         id="g34"><g
           id="Card_16_"
           style="fill:#50ba9f;fill-opacity:1"><g
             id="g16"
             style="fill:#50ba9f;fill-opacity:1"><path
               style="fill:#50ba9f;fill-opacity:1"
               id="path14"
               d="M 278.6,33.5 H 133.7 c -5.7,0 -10.4,4.6 -10.4,10.4 V 137 c 0,5.7 4.6,10.4 10.4,10.4 h 144.9 c 5.7,0 10.4,-4.6 10.4,-10.4 V 43.9 c 0,-5.7 -4.6,-10.4 -10.4,-10.4 z"
               class="st2" /></g></g><g
           id="Text_1_"
           transform="translate(2.7429984,-3.200165)"
           style="fill:#6c5d53;fill-opacity:0.76078433"><g
             id="g21"
             style="fill:#6c5d53;fill-opacity:0.76078433"><path
               style="fill:#6c5d53;fill-opacity:0.76078433"
               id="path19"
               d="m 195.8,116.3 -46.6,0 c -2.9,0 -5.2,2.3 -5.2,5.2 0,2.9 2.3,5.2 5.2,5.2 l 46.6,0 c 2.9,0 5.2,-2.3 5.2,-5.2 0,-2.9 -2.3,-5.2 -5.2,-5.2 z"
               class="st3"
               inkscape:connector-curvature="0" /></g></g><g
           id="Elipse_6_"
           transform="translate(-1.9418452e-7,0.7998346)"><g
             id="g26"><circle
               style="fill:#ed7061"
               r="20.700001"
               id="ellipse24"
               cy="74.900002"
               cx="216.5"
               class="st4" /></g></g><g
           id="Elipse_7_"
           transform="translate(2.285832,-137.09308)"><g
             id="g31"
             transform="translate(-5.9431631,4.5716639)"><circle
               style="fill:#ffcc68"
               r="20.700001"
               id="ellipse29"
               cy="207.93542"
               cx="251.25734"
               class="st5" /></g></g></g><g
         id="Card_1_"><g
           id="g38"><path
             style="fill:#f68637"
             id="path36"
             d="m 166.8,54.2 h -145 c -5.7,0 -10.3,4.6 -10.3,10.3 v 93.2 c 0,5.7 4.6,10.3 10.3,10.3 h 144.9 c 5.7,0 10.4,-4.6 10.4,-10.3 V 64.6 c 0,-5.7 -4.6,-10.4 -10.3,-10.4 z"
             class="st6" /></g></g><g
         id="Container_1_"><g
           id="g43"><path
             style="fill:#ffffff"
             id="path41"
             d="M 151.2,116.3 H 37.4 c -2.9,0 -5.2,2.3 -5.2,5.2 v 20.7 c 0,2.9 2.3,5.2 5.2,5.2 h 113.9 c 2.9,0 5.2,-2.3 5.2,-5.2 v -20.7 c -0.1,-2.9 -2.4,-5.2 -5.3,-5.2 z"
             class="st1" /></g></g><g
         id="Band_1_"><g
           id="g48"><rect
             style="fill:#676868"
             id="rect46"
             height="20.700001"
             width="165.60001"
             class="st0"
             y="74.900002"
             x="11.5" /></g></g></g><path
       style="opacity:0.26000001;fill:#848484;enable-background:new"
       id="path53"
       d="M 166.6,54.2 H 137.8 L 51.2,168.1 h 115.4 c 5.8,0 10.5,-4.7 10.5,-10.5 V 64.7 c 0,-5.7 -4.7,-10.5 -10.5,-10.5 z"
       class="st7" /><g
       id="Band_4_"><g
         id="g57"><rect
           style="fill:#676868"
           id="rect55"
           height="20.700001"
           width="165.60001"
           class="st0"
           y="74.900002"
           x="11.5" /></g></g></g></svg>