<svg width="512" height="512" xmlns="http://www.w3.org/2000/svg">

 <g>
  <title>background</title>
  <rect fill="none" id="canvas_background" height="402" width="582" y="-1" x="-1"/>
 </g>
 <g>
  <title>Layer 1</title>
  <path stroke-width="6" stroke="#333333" id="svg_1" fill="#B88C21" d="m430.755005,484.633667c0,13.455505 -11.010986,24.366333 -24.593994,24.366333l-304.321014,0c-13.578995,0 -24.593994,-10.910828 -24.593994,-24.366333l0,-386.961403c0,-13.459427 11.014999,-24.370262 24.593994,-24.370262l304.320007,0c13.583008,0 24.593994,10.910835 24.593994,24.370262l0.001007,386.961403l0,0z"/>
  <rect id="svg_2" fill="#D5D0BB" height="386.866" width="267.818" y="97.171" x="122.081"/>
  <rect id="svg_3" fill="#F1EBD4" height="378.172" width="267.818" y="94.147" x="122.081"/>
  <g id="svg_4">
   <path stroke="#000000" id="svg_5" fill="#7E7B73" d="m344.730988,98.529999c0,13.583 -11.010986,24.594002 -24.589996,24.594002l-126.285995,0c-13.578995,0 -24.589996,-11.011002 -24.589996,-24.594002l0,-26.113998c0,-13.583 11.011002,-24.594002 24.589996,-24.594002l126.281998,0c13.57901,0 24.589996,11.011002 24.589996,24.594002l0,26.113998l0.003998,0z"/>
   <path stroke="#000000" id="svg_6" fill="#7E7B73" d="m256.997986,0c-17.003983,0 -30.788986,13.785 -30.788986,30.792999c0,17.004002 13.785004,30.789001 30.788986,30.789001c17.008026,0 30.792999,-13.785 30.792999,-30.789001c0,-17.007999 -13.784973,-30.792999 -30.792999,-30.792999zm0,44.477001c-7.553986,0 -13.68399,-6.125999 -13.68399,-13.684002s6.130005,-13.684 13.68399,-13.684c7.558014,0 13.688019,6.126001 13.688019,13.684c-0.003998,7.554001 -6.130005,13.684002 -13.688019,13.684002z"/>
  </g>
  <g id="svg_7" opacity="0.4">
   <path id="svg_8" opacity="0.4" d="m352.450012,172.276001c0,3.210999 -2.604004,5.815002 -5.815002,5.815002l-101.296005,0c-3.210999,0 -5.815002,-2.604004 -5.815002,-5.815002l0,0c0,-3.210999 2.608002,-5.815002 5.815002,-5.815002l101.300003,0c3.209991,0 5.811005,2.604004 5.811005,5.815002l0,0z"/>
   <path id="svg_9" opacity="0.4" d="m352.450012,215.350006c0,3.210999 -2.604004,5.815002 -5.815002,5.815002l-101.296005,0c-3.210999,0 -5.815002,-2.604004 -5.815002,-5.815002l0,0c0,-3.210999 2.608002,-5.815002 5.815002,-5.815002l101.300003,0c3.209991,0 5.811005,2.599991 5.811005,5.815002l0,0z"/>
   <path id="svg_10" opacity="0.4" d="m352.450012,258.424011c0,3.210999 -2.604004,5.815002 -5.815002,5.815002l-101.296005,0c-3.210999,0 -5.815002,-2.604004 -5.815002,-5.815002l0,0c0,-3.210999 2.608002,-5.815002 5.815002,-5.815002l101.300003,0c3.209991,-0.000015 5.811005,2.603989 5.811005,5.815002l0,0z"/>
   <path id="svg_11" opacity="0.4" d="m352.450012,301.497986c0,3.210999 -2.604004,5.815002 -5.815002,5.815002l-101.296005,0c-3.210999,0 -5.815002,-2.604004 -5.815002,-5.815002l0,0c0,-3.210999 2.608002,-5.815002 5.815002,-5.815002l101.300003,0c3.209991,0.000031 5.811005,2.601013 5.811005,5.815002l0,0z"/>
   <path id="svg_12" opacity="0.4" d="m352.450012,387.641998c0,3.210999 -2.604004,5.815002 -5.815002,5.815002l-101.296005,0c-3.210999,0 -5.815002,-2.604004 -5.815002,-5.815002l0,0c0,-3.210999 2.608002,-5.815002 5.815002,-5.815002l101.300003,0c3.209991,0 5.811005,2.605011 5.811005,5.815002l0,0z"/>
   <path id="svg_13" opacity="0.4" d="m352.450012,430.716003c0,3.210999 -2.604004,5.815002 -5.815002,5.815002l-101.296005,0c-3.210999,0 -5.815002,-2.604004 -5.815002,-5.815002l0,0c0,-3.210999 2.608002,-5.815002 5.815002,-5.815002l101.300003,0c3.209991,0.001007 5.811005,2.605011 5.811005,5.815002l0,0z"/>
   <path id="svg_14" opacity="0.4" d="m352.450012,344.567993c0,3.210999 -2.604004,5.815002 -5.815002,5.815002l-101.296005,0c-3.210999,0 -5.815002,-2.604004 -5.815002,-5.815002l0,0c0,-3.210999 2.608002,-5.815002 5.815002,-5.815002l101.300003,0c3.209991,0 5.811005,2.605011 5.811005,5.815002l0,0z"/>
  </g>
  <g id="svg_15" opacity="0.2">
   <path id="svg_16" d="m204.039993,212.029999l-44.492996,0c-1.674011,0 -3.033005,-1.358994 -3.033005,-3.033005l0,-44.492996c0,-1.673996 1.358994,-3.033005 3.033005,-3.033005l44.492996,0c1.673996,0 3.03299,1.359009 3.03299,3.033005l0,44.492996c0.000015,1.675003 -1.358978,3.033005 -3.03299,3.033005zm-41.460999,-6.065002l38.428009,0l0,-38.428009l-38.428009,0l0,38.428009z"/>
  </g>
  <g id="svg_17" opacity="0.2">
   <path id="svg_18" d="m204.039993,288.526001l-44.492996,0c-1.674011,0 -3.033005,-1.359009 -3.033005,-3.03299l0,-44.493011c0,-1.673996 1.358994,-3.033005 3.033005,-3.033005l44.492996,0c1.673996,0 3.03299,1.359009 3.03299,3.033005l0,44.493011c0.000015,1.673981 -1.358978,3.03299 -3.03299,3.03299zm-41.460999,-6.06601l38.428009,0l0,-38.428009l-38.428009,0l0,38.428009z"/>
  </g>
  <g id="svg_19" opacity="0.2">
   <path id="svg_20" d="m204.039993,365.026001l-44.492996,0c-1.674011,0 -3.033005,-1.359009 -3.033005,-3.03299l0,-44.493011c0,-1.674011 1.358994,-3.03299 3.033005,-3.03299l44.492996,0c1.673996,0 3.03299,1.358978 3.03299,3.03299l0,44.493011c0.000015,1.673981 -1.358978,3.03299 -3.03299,3.03299zm-41.460999,-6.06601l38.428009,0l0,-38.428009l-38.428009,0l0,38.428009z"/>
  </g>
  <g id="svg_21" opacity="0.2">
   <path id="svg_22" d="m204.039993,441.524994l-44.492996,0c-1.674011,0 -3.033005,-1.359009 -3.033005,-3.03299l0,-44.497009c0,-1.674011 1.358994,-3.03302 3.033005,-3.03302l44.492996,0c1.673996,0 3.03299,1.359009 3.03299,3.03302l0,44.492981c0.000015,1.679016 -1.358978,3.037018 -3.03299,3.037018zm-41.460999,-6.065002l38.428009,0l0,-38.428009l-38.428009,0l0,38.428009z"/>
  </g>
  <g id="svg_23">
   <path id="svg_24" fill="#C81702" d="m184.274002,198.378998c-1.132004,0 -2.184006,-0.630997 -2.705002,-1.653992c-3.966995,-7.804001 -10.979004,-10.170013 -11.048004,-10.194c-1.593002,-0.522003 -2.459,-2.23201 -1.936996,-3.825012c0.522003,-1.592987 2.220001,-2.462997 3.824997,-1.940994c0.307007,0.100998 6.320007,2.126999 11.298004,8.201004c3.886002,-7.574005 13.287994,-20.817001 33.158997,-26.244003c1.597,-0.436996 3.28801,0.509995 3.723999,2.126999c0.44101,1.617996 -0.513992,3.283997 -2.126999,3.723999c-24.625992,6.725006 -31.024002,26.806 -31.281998,27.654999c-0.360001,1.181 -1.406998,2.029999 -2.636993,2.139008c-0.096008,0.006989 -0.181,0.011993 -0.270004,0.011993z"/>
   <path id="svg_25" fill="#C81702" d="m184.274002,426.71701c-1.132004,0 -2.184006,-0.631012 -2.705002,-1.653992c-3.966995,-7.804016 -10.979004,-10.170013 -11.048004,-10.194c-1.593002,-0.522003 -2.459,-2.231995 -1.936996,-3.825012s2.220001,-2.46701 3.824997,-1.94101c0.307007,0.101013 6.320007,2.127014 11.298004,8.201019c3.886002,-7.574005 13.287994,-20.817017 33.158997,-26.244019c1.597,-0.444977 3.28801,0.509003 3.723999,2.127014c0.44101,1.617004 -0.513992,3.283997 -2.126999,3.723999c-24.625992,6.725006 -31.024002,26.806 -31.281998,27.654999c-0.360001,1.181 -1.406998,2.029999 -2.636993,2.139008c-0.096008,0.007996 -0.181,0.011993 -0.270004,0.011993z"/>
   <path id="svg_26" fill="#C81702" d="m184.274002,350.161011c-1.132004,0 -2.184006,-0.63501 -2.705002,-1.65799c-3.966995,-7.804016 -10.979004,-10.170013 -11.044006,-10.194c-1.597,-0.518005 -2.462997,-2.232025 -1.940994,-3.825012s2.240005,-2.46701 3.820999,-1.94101c0.311005,0.101013 6.320007,2.127014 11.302002,8.197021c3.886002,-7.570007 13.287994,-20.817017 33.158997,-26.244019c1.597,-0.436981 3.28801,0.51001 3.723999,2.127014c0.44101,1.617981 -0.509995,3.283997 -2.126999,3.723999c-24.759995,6.764984 -31.222,27.44101 -31.278,27.647003c-0.356003,1.184998 -1.403,2.037994 -2.632004,2.151001c-0.097,0.011993 -0.185989,0.015991 -0.278992,0.015991z"/>
   <path id="svg_27" fill="#C81702" d="m184.274002,273.596008c-1.132004,0 -2.184006,-0.631012 -2.705002,-1.653992c-3.966995,-7.804016 -10.979004,-10.170013 -11.048004,-10.194c-1.593002,-0.522003 -2.459,-2.231995 -1.936996,-3.825012s2.220001,-2.466995 3.824997,-1.940994c0.307007,0.100998 6.320007,2.126999 11.298004,8.201004c3.886002,-7.574005 13.287994,-20.817001 33.158997,-26.244003c1.597,-0.440994 3.28801,0.509995 3.723999,2.126999c0.44101,1.617996 -0.513992,3.283997 -2.126999,3.723999c-24.625992,6.725006 -31.024002,26.806 -31.281998,27.654999c-0.360001,1.181 -1.406998,2.029999 -2.636993,2.139008c-0.096008,0.007996 -0.181,0.011993 -0.270004,0.011993z"/>
  </g>
  <g id="svg_28"/>
  <g id="svg_29"/>
  <g id="svg_30"/>
  <g id="svg_31"/>
  <g id="svg_32"/>
  <g id="svg_33"/>
  <g id="svg_34"/>
  <g id="svg_35"/>
  <g id="svg_36"/>
  <g id="svg_37"/>
  <g id="svg_38"/>
  <g id="svg_39"/>
  <g id="svg_40"/>
  <g id="svg_41"/>
  <g id="svg_42"/>
 </g>
</svg>