<?xml version="1.0" encoding="UTF-8" standalone="no"?>
<svg
   xmlns:dc="http://purl.org/dc/elements/1.1/"
   xmlns:cc="http://creativecommons.org/ns#"
   xmlns:rdf="http://www.w3.org/1999/02/22-rdf-syntax-ns#"
   xmlns:svg="http://www.w3.org/2000/svg"
   xmlns="http://www.w3.org/2000/svg"
   height="277.5"
   width="277.5"
   xml:space="preserve"
   viewBox="0 0 277.5 277.50001"
   y="0px"
   x="0px"
   id="Layer_2"
   version="1.1"><metadata
     id="metadata67"><rdf:RDF><cc:Work
         rdf:about=""><dc:format>image/svg+xml</dc:format><dc:type
           rdf:resource="http://purl.org/dc/dcmitype/StillImage" /><dc:title></dc:title></cc:Work></rdf:RDF></metadata><defs
     id="defs65" /><style
     id="style2"
     type="text/css">
	.st0{fill:#676868;}
	.st1{fill:#FFFFFF;}
	.st2{fill:#E5E5E5;}
	.st3{fill:#B4B2B4;}
	.st4{fill:#ED7061;}
	.st5{fill:#FFCC68;}
	.st6{fill:#F68637;}
	.st7{opacity:0.26;fill:#848484;enable-background:new    ;}
</style><g
     transform="translate(-11.5,37.95)"
     id="g60"><g
       id="g51"><g
         id="Band_3_"><g
           id="g6"><rect
             style="fill:#676868"
             id="rect4"
             height="20.700001"
             width="165.60001"
             class="st0"
             y="79.099998"
             x="11.5" /></g></g><g
         id="Container"><g
           id="g11"><path
             style="fill:#ffffff"
             id="path9"
             d="M 151.2,120.5 H 37.4 c -2.9,0 -5.2,2.3 -5.2,5.2 v 20.7 c 0,2.9 2.3,5.2 5.2,5.2 h 113.9 c 2.9,0 5.2,-2.3 5.2,-5.2 v -20.7 c -0.1,-2.8 -2.4,-5.2 -5.3,-5.2 z"
             class="st1" /></g></g><g
         id="g34"><g
           id="Card_16_"><g
             id="g16"><path
               style="fill:#e5e5e5"
               id="path14"
               d="M 278.6,33.5 H 133.7 c -5.7,0 -10.4,4.6 -10.4,10.4 V 137 c 0,5.7 4.6,10.4 10.4,10.4 h 144.9 c 5.7,0 10.4,-4.6 10.4,-10.4 V 43.9 c 0,-5.7 -4.6,-10.4 -10.4,-10.4 z"
               class="st2" /></g></g><g
           id="Text_1_"><g
             id="g21"><path
               style="fill:#b4b2b4"
               id="path19"
               d="m 195.8,116.3 h -46.6 c -2.9,0 -5.2,2.3 -5.2,5.2 0,2.9 2.3,5.2 5.2,5.2 h 46.6 c 2.9,0 5.2,-2.3 5.2,-5.2 0,-2.9 -2.3,-5.2 -5.2,-5.2 z"
               class="st3" /></g></g><g
           id="Elipse_6_"><g
             id="g26"><circle
               style="fill:#ed7061"
               r="20.700001"
               id="ellipse24"
               cy="74.900002"
               cx="216.5"
               class="st4" /></g></g><g
           id="Elipse_7_"><g
             id="g31"><circle
               style="fill:#ffcc68"
               r="20.700001"
               id="ellipse29"
               cy="74.900002"
               cx="247.60001"
               class="st5" /></g></g></g><g
         id="Card_1_"><g
           id="g38"><path
             style="fill:#f68637"
             id="path36"
             d="m 166.8,54.2 h -145 c -5.7,0 -10.3,4.6 -10.3,10.3 v 93.2 c 0,5.7 4.6,10.3 10.3,10.3 h 144.9 c 5.7,0 10.4,-4.6 10.4,-10.3 V 64.6 c 0,-5.7 -4.6,-10.4 -10.3,-10.4 z"
             class="st6" /></g></g><g
         id="Container_1_"><g
           id="g43"><path
             style="fill:#ffffff"
             id="path41"
             d="M 151.2,116.3 H 37.4 c -2.9,0 -5.2,2.3 -5.2,5.2 v 20.7 c 0,2.9 2.3,5.2 5.2,5.2 h 113.9 c 2.9,0 5.2,-2.3 5.2,-5.2 v -20.7 c -0.1,-2.9 -2.4,-5.2 -5.3,-5.2 z"
             class="st1" /></g></g><g
         id="Band_1_"><g
           id="g48"><rect
             style="fill:#676868"
             id="rect46"
             height="20.700001"
             width="165.60001"
             class="st0"
             y="74.900002"
             x="11.5" /></g></g></g><path
       style="opacity:0.26000001;fill:#848484;enable-background:new"
       id="path53"
       d="M 166.6,54.2 H 137.8 L 51.2,168.1 h 115.4 c 5.8,0 10.5,-4.7 10.5,-10.5 V 64.7 c 0,-5.7 -4.7,-10.5 -10.5,-10.5 z"
       class="st7" /><g
       id="Band_4_"><g
         id="g57"><rect
           style="fill:#676868"
           id="rect55"
           height="20.700001"
           width="165.60001"
           class="st0"
           y="74.900002"
           x="11.5" /></g></g></g></svg>