<?xml version="1.0" encoding="UTF-8"?>
<!-- Svg Vector Icons : http://www.onlinewebfonts.com/icon -->
<!DOCTYPE svg PUBLIC "-//W3C//DTD SVG 1.1//EN" "http://www.w3.org/Graphics/SVG/1.1/DTD/svg11.dtd">
<svg version="1.1" xmlns="http://www.w3.org/2000/svg" xmlns:xlink="http://www.w3.org/1999/xlink" x="0px" y="0px" viewBox="0 0 1000 1000" enable-background="new 0 0 1000 1000" xml:space="preserve">
<metadata> Svg Vector Icons : http://www.onlinewebfonts.com/icon </metadata>
<g><g transform="translate(0.000000,511.000000) scale(0.100000,-0.100000)"><path d="M4974.6,4620.8c-144-60-240-132-316-238c-66-92-118-246-118-356c0-174,144-416,310-518.1c46-28,70-58,70-88c0-42-12-48-134-58c-364-30-832.1-166-1222.1-354c-998.1-482.1-1730.2-1344.2-2032.3-2392.3c-74-256-132-596.1-132-764.1c0-174,24-164-408-164c-272,0-392.1-8-408-24c-32-32-30-106,4-134c38-32,9247.1-32,9285.1,0c34,28,36,102,4,134c-18,18-136,24-410,24h-384.1l-10,66c-6,34-16,136-22,224c-70,924.1-606.1,1914.2-1380.2,2540.3c-578.1,466.1-1338.2,788.1-1994.2,844.1c-124,10-136,16-136,58c0,30,22,58,68,86c38,24,100,78,140,122c286,316,200,752.1-192,960.1c-110,60-148,68-296,74C5116.6,4668.7,5072.6,4662.7,4974.6,4620.8z M5470.7,4420.7c180-82,262-226,246-424.1c-12-150-90-256-246-338.1l-120-64l-6-182c-6-216-10-212,226-234c974.1-86,1918.2-588.1,2520.3-1340.2c344-428,604.1-980.1,708.1-1500.2c46-226,88-604.1,70-632.1c-6-10-1500.2-18-3638.5-18c-2138.3,0-3632.4,8-3638.4,18c-18,28,24,406,70,632.1c154,762.1,592.1,1496.2,1198.1,2000.2c562.1,470.1,1306.2,776.1,2030.2,840.1c236,22,232,18,226,234l-6,182l-120,64c-78,40-140,92-180,148c-54,76-60,102-60,232s6,156,60,234C4940.6,4458.7,5242.6,4528.7,5470.7,4420.7z"/><path d="M5972.7,2762.5c-24-18-34-46-28-84c6-52,32-70,286-198c444.1-226,796.1-486.1,1100.1-818.1c380.1-416,580.1-790.1,710.1-1328.2c18-68,32-88,74-98c78-20,132,52,114,150c-122,672.1-626.1,1396.2-1338.2,1922.2c-228,168-372,254-632.1,380C6028.7,2798.5,6022.7,2800.5,5972.7,2762.5z"/><path d="M4050.5-1372c-1012.1-18-1052.1-26-1730.2-296c-138-54-280-106-316-114c-60-12-64-10-64,46c0,78-46,124-126,124c-36,0-186-18-334-40c-148-24-506.1-72-796.1-108c-288-38-538.1-80-554.1-92c-26-22-30-202-30-1290.2c0-1132.1,4-1268.2,32-1292.1c26-22,132-12,644.1,60c722.1,100,1032.1,148,1340.2,206c264,48,294,72,264,206c-38,166-30,194,98,316c66,62,144,124,176,136c40,14,360,14,1116.1-2c1114.1-26,1598.2-16,1784.2,32c138,36,238,88,986.1,522.1c1332.2,770.1,1386.2,808.1,1452.2,960.1c66,152,2,336-140,404.1c-162,80-322,54-822.1-132c-164-60-480.1-172-700.1-248c-220-74-490.1-168-600.1-206c-230-82-290-86-740.1-42c-164,16-344,30-400,30c-154,2-78,30,272,100c454,92,618.1,180,650.1,350c26,146-52,284-202,352.1c-62,28-124,36-270,34C4936.6-1358,4490.5-1366,4050.5-1372z M5230.6-1552c44,0,90-60,90-118c0-102-108-156-416-212c-96-18-384-84-642.1-146c-394.1-96-472.1-120-496.1-158c-28-40-28-52,0-94c34-52,12-48,734.1-102c214-16,508.1-38,654.1-52c314-26,472.1-8,700.1,84c86,34,386,142,666.1,238c280,98,628.1,218,770.1,268c190,66,290,92,370,92c128,0,160-22,160-114c0-94-74-164-330-312c-260-150-854.1-494.1-1300.2-756.1c-176-104-398.1-226-492.1-274c-254-130-374-136-1820.2-108c-1338.2,28-1300.2,30-1476.2-128c-98-88-102-88-112-44c-48,204-290,1450.2-286,1472.2c4,16,70,48,146,74c78,24,268,96,426,158c490.1,194,472.1,192,1580.2,212c532.1,10,972.1,22,980.1,30c6,6,24,6,40,0C5190.6-1548,5216.6-1552,5230.6-1552z M1966.2-2876.2c160-798.1,206-1068.1,188-1080.1c-26-16-232-46-242-34c-8,12-450.1,2128.3-444.1,2132.3c6,6,206,40,252,44C1746.2-1812.1,1792.2-2014.1,1966.2-2876.2z M1490.2-2948.2c122-580.1,220-1062.1,220-1074.1c0-18-1214.2-204-1354.2-208l-56-2v1110.1c0,610.1,2,1110.1,6,1112.2c20,6,858.1,114,904.1,116l60,2L1490.2-2948.2z"/><path d="M1130.1-3682.3c-128-126,16-330,184-260c170,72,120,310-64,310C1200.1-3632.3,1162.1-3648.3,1130.1-3682.3z"/><path d="M668.1-3712.3c-54-22-128-114-128-162c0-18,24-62,52-96c64-78,162-84,236-16c80,70,86,138,18,210C782.1-3706.3,728.1-3688.3,668.1-3712.3z M740.1-3872.3c0-10-8-20-20-20c-10,0-20,10-20,20c0,12,10,20,20,20C732.1-3852.3,740.1-3860.3,740.1-3872.3z"/></g></g>
</svg>