<?xml version="1.0" encoding="UTF-8"?>
<svg width="45" height="45" xmlns="http://www.w3.org/2000/svg" xmlns:svg="http://www.w3.org/2000/svg">
 <metadata id="metadata8">image/svg+xml</metadata>
 <defs>
  <clipPath clipPathUnits="userSpaceOnUse" id="clipPath20">
   <path d="m0,36l36,0l0,-36l-36,0l0,36z" id="path22"/>
  </clipPath>
 </defs>
 <g>
  <title>Layer 1</title>
  <g id="g10" transform="matrix(1.25, 0, 0, -1.25, 0, 45)">
   <g id="g12">
    <path stroke-width="0.25" fill="#ffac33" fill-rule="nonzero" stroke="#191919" d="m11.7915,29.9375l-0.01,-3.323l5.347,1.386l-2.936,1.999001l-2.401,-0.062z" id="path14"/>
   </g>
   <g id="g16">
    <g id="g18" clip-path="url(#clipPath20)">
     <g id="g24">
      <path stroke-width="0.25" fill="#ffac33" fill-rule="nonzero" stroke="#191919" d="m33.25,13.517601c0,1.137999 0.761002,2.070999 1.75,2.237999l0,11.659c-4,0.962 -34,-7.191 -34,-7.191l0,-3.536001c1.563999,-0.293999 2.75,-1.661999 2.75,-3.313c0,-1.65 -1.186001,-3.018 -2.75,-3.311999l0,-7.716l34,6.482999l0,2.451c-0.988998,0.167001 -1.75,1.1 -1.75,2.237001" id="path26"/>
     </g>
     <g id="g28">
      <path stroke-width="0.25" fill="#ffd983" fill-rule="nonzero" stroke="#191919" d="m15.5854,34.757801l-3.843,-3.842999c0.736,-0.172001 1.258,-0.591003 1.258,-1.081001c0,-0.645 -0.896,-1.167 -2,-1.167c-0.474,0 -0.903,0.099998 -1.245999,0.26l-8.754001,-8.754c13.167,2.91 22.042001,5.285 34.099,7.224998c-4.861,6.483002 -16.273001,7.360001 -19.514,7.360001" id="path30"/>
     </g>
     <g id="g32">
      <path stroke-width="0.25" fill="#ffac33" fill-rule="nonzero" stroke="#191919" d="m20,31.8335c0,-0.645 -0.895,-1.167 -2,-1.167c-1.104,0 -2,0.521999 -2,1.167c0,0.644001 0.896,1.167 2,1.167c1.105,0 2,-0.522999 2,-1.167" id="path34"/>
     </g>
     <g id="g36">
      <path stroke-width="0.25" fill="#ffac33" fill-rule="nonzero" stroke="#191919" d="m15.0718,25.438c0,-0.979 -1.359,-1.771 -3.036,-1.771c-1.676,0 -3.036,0.792 -3.036,1.771c0,0.976999 1.360001,1.77 3.036,1.77c1.677,0 3.036,-0.793001 3.036,-1.77" id="path38"/>
     </g>
     <g id="g40">
      <path stroke-width="0.25" fill="#ffac33" fill-rule="nonzero" stroke="#191919" d="m29,28.6479c0,-1.094 -1.52,-1.980999 -3.396,-1.980999c-1.875,0 -3.396,0.886999 -3.396,1.980999c0,1.093998 1.521,1.980999 3.396,1.980999c1.875999,0 3.396,-0.887001 3.396,-1.980999" id="path42"/>
     </g>
     <g id="g44">
      <path stroke-width="0.25" fill="#f4900c" fill-rule="nonzero" stroke="#191919" d="m33.625,21.3804c0,-1.332001 -0.979,-2.410999 -2.188,-2.410999c-1.207001,0 -2.187,1.078999 -2.187,2.410999c0,1.330999 0.98,2.410999 2.187,2.410999c1.209,0 2.188,-1.08 2.188,-2.410999" id="path46"/>
     </g>
     <g id="g48">
      <path stroke-width="0.25" fill="#f4900c" fill-rule="nonzero" stroke="#191919" d="m11.375,16.517601c0,-1.255001 -0.923,-2.272001 -2.063,-2.272001c-1.139,0 -2.062,1.017 -2.062,2.272001c0,1.255999 0.923,2.272999 2.062,2.272999c1.139999,0 2.063,-1.017 2.063,-2.272999" id="path50"/>
     </g>
     <g id="g52">
      <path stroke-width="0.25" fill="#f4900c" fill-rule="nonzero" stroke="#191919" d="m28.5313,11.5381c-0.503,-0.602 -1.355,-0.72 -1.903,-0.262c-0.547001,0.457 -0.582001,1.318 -0.077,1.918999c0.504,0.605001 1.355999,0.722 1.903,0.265001c0.548,-0.458 0.581999,-1.318 0.077,-1.922" id="path54"/>
     </g>
     <g id="g56">
      <path stroke-width="0.25" fill="#f4900c" fill-rule="nonzero" stroke="#191919" d="m18.8472,18.916c-0.677,-0.811001 -1.825001,-0.969999 -2.563,-0.351999c-0.735001,0.615 -0.782999,1.771999 -0.103001,2.581999c0.68,0.814001 1.826,0.972 2.562,0.356001c0.737,-0.616001 0.784,-1.772001 0.104,-2.586" id="path58"/>
     </g>
     <g id="g60">
      <path stroke-width="0.25" fill="#f4900c" fill-rule="nonzero" stroke="#191919" d="m19.7197,8.9014c-1.200001,-1.604 -3.354,-2.02 -4.808001,-0.933c-1.455,1.088 -1.663,3.273 -0.462999,4.875c1.200001,1.606 3.354,2.023 4.808001,0.935c1.455,-1.088 1.663,-3.272 0.462999,-4.877001" id="path62"/>
     </g>
    </g>
   </g>
  </g>
 </g>
</svg>