<svg width="520" height="512" xmlns="http://www.w3.org/2000/svg">

 <g>
  <title>background</title>
  <rect fill="none" id="canvas_background" height="514" width="522" y="-1" x="-1"/>
 </g>
 <g>
  <title>Layer 1</title>
  <polygon stroke-width="3" stroke="#4c4c4c" id="svg_1" fill="#CCCCCC" points="182.45599365234375,202.16799926757812 168.7100067138672,215.91299438476562 107.5999984741211,154.80299377441406 84.1510009765625,131.35400390625 97.89700317382812,117.60800170898438 "/>
  <path stroke-width="2" stroke="#333333" id="svg_2" fill="#B3B3B3" d="m121.333,139.044006c-1.269997,2.227997 -2.862999,4.339996 -4.767998,6.244003l-1.360001,1.373001l-1.373001,1.373001c-1.903999,1.903992 -4.002998,3.498001 -6.231003,4.768005l-23.448997,-23.449005l13.746002,-13.746002l23.434998,23.436996z"/>
  <rect stroke-width="2" stroke="#333333" id="svg_3" fill="#E6E6E6" height="48.271" width="184.6" y="434.271" x="205.782"/>
  <path stroke-width="3" stroke="#333333" id="svg_4" fill="#9AD14B" d="m437.561005,177.472c-7.851013,-9.832993 -29.524994,-6.011002 -39.358002,-13.862c-9.781006,-7.811996 -10.856995,-29.809998 -22.243988,-35.302994c-11.206024,-5.402008 -29.059021,7.409988 -41.470001,4.585999c-12.02301,-2.734009 -22.542023,-22.089005 -35.394012,-22.089005c-12.85199,0 -23.358002,19.354996 -35.394012,22.089005c-12.410995,2.82399 -30.263992,-9.989006 -41.469986,-4.585999c-11.388,5.492996 -12.462997,27.490997 -22.244003,35.302994c-9.832993,7.850998 -31.507004,4.029007 -39.358002,13.862c-2.358002,2.940994 -3.225998,6.839996 -3.445999,11.167007l-5.548996,16.25c3.393997,-0.596008 -1.835999,4.317993 1.72699,4.317993c8.512009,0 9.94101,1.994995 17.27301,5.182007c6.321991,2.733994 -27.430008,16.967987 -22.455002,21.592987c11.828003,10.999008 43.184006,24.032013 43.184006,41.457001l174.464996,-2.591003c0,-10.700989 54.696991,-15.475983 59.593994,-24.18399c10.312012,-18.371002 -15.658997,-36.274994 6.908997,-36.274994c4.417999,0 4.595001,-23.847 8.740997,-22.952011c0.013,-5.427002 -0.66098,-10.388992 -3.510986,-13.964996z"/>
  <path id="svg_5" fill="#90BC42" d="m436.561005,175.472c2.850006,3.576004 3.523987,8.537994 3.510986,13.966003c-4.145996,-0.893997 -8.43399,-1.373001 -12.85199,-1.373001c-22.567993,0 -42.247009,12.410995 -52.559998,30.781998l-164.688004,-14.677994c-4.975006,-4.625 -10.740005,-8.421005 -17.061996,-11.154999l204.291992,-31.404007c9.834015,7.850998 31.507996,4.029007 39.359009,13.862z"/>
  <path stroke-width="3" id="svg_6" fill="#F95428" d="m209.973007,203.167999c11.828003,10.999008 19.225998,26.701004 19.225998,44.126007l-66.473999,15.917999l-53.997993,-15.917999c0,-28.851013 20.288002,-52.973999 47.390999,-58.856003c0.789993,-0.167999 1.593994,-0.324005 2.397003,-0.466003c3.393997,-0.595993 6.891998,-0.906998 10.455002,-0.906998c8.511993,0 16.608994,1.761993 23.940994,4.949005c6.321991,2.732986 12.08699,6.528992 17.061996,11.153992z"/>
  <path stroke="#333333" id="svg_7" fill="#E54728" d="m135.069,249.294006c0,-28.731003 20.121002,-52.765991 47.052002,-58.774002c-4.234009,-0.944 -8.632004,-1.455002 -13.154007,-1.455002c-3.562988,0 -7.060989,0.311005 -10.455002,0.907013c-0.802994,0.14299 -1.605988,0.297989 -2.396988,0.465988c-27.102005,5.882004 -47.391006,30.004013 -47.391006,58.856003l53.998001,15.917999l14.535995,-3.480988l-42.188995,-12.437012z"/>
  <path stroke-width="3" stroke="#333333" id="svg_8" fill="#F95428" d="m374.661011,217.847c10.312012,-18.371002 29.992004,-30.781998 52.559998,-30.781998c4.417999,0 8.705994,0.479004 12.85199,1.373001c27.102997,5.882004 47.391022,30.003998 47.391022,58.856003l-48.358002,20.235992l-72.126007,-20.235992c-0.002014,-10.701004 2.783997,-20.741013 7.681,-29.447006z"/>
  <path stroke-width="3" stroke="#4c4c4c" id="svg_9" fill="#F7B239" d="m106.069,92.662003c11.647003,11.633995 11.647003,30.496994 0,42.130997l-1.360001,1.373001l-1.373001,1.373001c-11.633995,11.634003 -30.497002,11.634003 -42.143997,0l-53.467001,-53.479004c-11.634,-11.633995 -11.634,-30.496998 0,-42.130997l2.733999,-2.747002c11.647001,-11.633999 30.510002,-11.633999 42.144001,0l53.466,53.480003z"/>
  <path stroke-width="2" stroke="#333333" id="svg_10" fill="#E09B2D" d="m113.689003,123.738998c-1.451004,3.666 -3.653,7.087006 -6.620003,10.053009l-1.360001,1.372986l-1.373001,1.373001c-11.633995,11.634003 -30.497002,11.634003 -42.143997,0l-53.467001,-53.477997c-11.634,-11.633995 -11.634,-30.496998 0,-42.130997l2.733999,-2.747002c2.967,-2.966999 6.413,-5.181999 10.079,-6.619999c-4.262001,10.714001 -2.047001,23.396999 6.620001,32.063999l53.466999,53.479004c8.68,8.667999 21.349998,10.883995 32.064003,6.633995z"/>
  <path id="svg_11" fill="#E54728" d="m393.320007,247.294006c0,-28.731003 20.121002,-52.765991 47.052002,-58.774002c-4.234009,-0.944 -8.631989,-1.455002 -13.153992,-1.455002c-3.563019,0 -7.061005,0.311005 -10.455017,0.907013c-0.802979,0.14299 -1.605988,0.297989 -2.397003,0.465988c-27.102997,5.882004 -47.389984,30.004013 -47.389984,58.856003l53.997986,15.917999l14.536011,-3.480988l-42.190002,-12.437012z"/>
  <path stroke-width="3" stroke="#4c4c4c" id="svg_12" fill="#E6E6E6" d="m485.463013,249.294006l24.536987,0c0,85.089996 -49.68399,158.559998 -121.610992,193.020996l-184.600021,0c-71.927994,-34.460999 -121.611984,-107.931 -121.611984,-193.020996l24.549995,0l120.471001,0l137.779999,0l120.485016,0z"/>
  <path stroke-width="3" stroke="#333333" id="svg_13" fill="#CCCCCC" d="m320.437988,440.315002c-71.927994,-34.460999 -121.610992,-107.931 -121.610992,-193.020996l-90.099007,0l-24.549995,0c0,85.089996 49.68399,158.559998 121.610992,193.020996l0,42.221008l50.518997,0l0,-42.221008l64.130005,0z"/>
  <g id="svg_14"/>
  <g id="svg_15"/>
  <g id="svg_16"/>
  <g id="svg_17"/>
  <g id="svg_18"/>
  <g id="svg_19"/>
  <g id="svg_20"/>
  <g id="svg_21"/>
  <g id="svg_22"/>
  <g id="svg_23"/>
  <g id="svg_24"/>
  <g id="svg_25"/>
  <g id="svg_26"/>
  <g id="svg_27"/>
  <g id="svg_28"/>
 </g>
</svg>