<?xml version="1.0" encoding="UTF-8" standalone="no"?>
<svg
   xmlns:dc="http://purl.org/dc/elements/1.1/"
   xmlns:cc="http://creativecommons.org/ns#"
   xmlns:rdf="http://www.w3.org/1999/02/22-rdf-syntax-ns#"
   xmlns:svg="http://www.w3.org/2000/svg"
   xmlns="http://www.w3.org/2000/svg"
   height="231"
   width="231"
   xml:space="preserve"
   viewBox="0 0 231 231"
   y="0px"
   x="0px"
   id="Layer_1"
   version="1.1"><metadata
     id="metadata95"><rdf:RDF><cc:Work
         rdf:about=""><dc:format>image/svg+xml</dc:format><dc:type
           rdf:resource="http://purl.org/dc/dcmitype/StillImage" /><dc:title></dc:title></cc:Work></rdf:RDF></metadata><defs
     id="defs93" /><g
     transform="translate(-33,35)"
     id="g58"><g
       transform="translate(0,-74.25)"
       id="g12"><path
         id="path10"
         d="m 184.55,113.5 c -39.087,0 -83.966,24.306 -95.935,42 -4.612,-10.233 -16.757,-28.667 -31.015,-28.667 -18.225,0 0,11.939 0,26.667 0,14.728 -18.225,26.667 0,26.667 14.258,0 19.658,-0.563 24.271,-10.796 11.969,17.694 63.592,24.129 102.679,24.129 32.189,0 51.837,-19.964 60.599,-31.684 3.695,-4.943 3.695,-11.689 0,-16.632 -8.762,-11.72 -28.41,-31.684 -60.599,-31.684 z"
         style="fill:#f9b65f" /></g><g
       transform="translate(0,-74.25)"
       id="g16"><path
         id="path14"
         d="m 245.149,145.184 c -8.761,-11.72 -28.41,-31.684 -60.599,-31.684 -11.956,0 -24.451,2.281 -36.383,5.945 v 72.265 c 12.327,1.234 24.896,1.791 36.383,1.791 32.189,0 51.837,-19.964 60.599,-31.684 3.695,-4.944 3.695,-11.69 0,-16.633 z"
         style="fill:#e09a46" /></g><g
       transform="translate(0,-74.25)"
       id="g20"><path
         id="path18"
         d="m 197.181,114.582 c -3.976,-0.689 -8.179,-1.082 -12.631,-1.082 -32.154,0 -68.211,16.448 -86.659,32.132 7.954,4.074 19.172,6.584 34.109,2.868 34.833,-8.667 32.5,3.333 49.5,0 10.422,-2.043 14.266,-20.184 15.681,-33.918 z"
         style="fill:#e67e22" /></g><g
       transform="translate(0,-74.25)"
       id="g24"><path
         id="path22"
         d="m 184.55,113.5 c -11.957,0 -24.453,2.277 -36.383,5.941 v 26.117 c 18.471,-1.728 19.552,5.645 33.333,2.942 10.422,-2.043 14.266,-20.184 15.681,-33.918 -3.976,-0.689 -8.179,-1.082 -12.631,-1.082 z"
         style="fill:#c15c10" /></g><g
       transform="translate(0,-74.25)"
       id="g28"><path
         id="path26"
         d="m 66,196 h 165 c 18.225,0 33,-14.775 33,-33 v 0 H 33 v 0 c 0,18.225 14.775,33 33,33 z"
         style="fill:#ffffff" /></g><g
       transform="translate(0,-74.25)"
       id="g32"><path
         id="path30"
         d="m 148.167,163 v 33 H 231 c 18.225,0 33,-14.775 33,-33 z"
         style="fill:#e3e5e4" /></g><g
       transform="translate(0,-74.25)"
       id="g36"><circle
         id="circle34"
         r="4.5"
         cy="144.5"
         cx="205.5"
         style="fill:#c15c10" /></g><g
       transform="translate(0,-74.25)"
       id="g40"><path
         id="path38"
         d="m 69.884,164.875 c 0,-10.659 10.211,-16.375 22.808,-16.375 12.597,0 22.808,5.716 22.808,16.375 0,10.659 -10.211,19.299 -22.808,19.299 -12.597,0 -22.808,-8.641 -22.808,-19.299 z"
         style="fill:#c0392b" /></g><g
       transform="translate(0,-74.25)"
       id="g44"><path
         id="path42"
         d="m 179.123,159.694 c 0,-5.874 5.628,-9.024 12.57,-9.024 6.942,0 12.57,3.15 12.57,9.024 0,5.874 -5.628,10.636 -12.57,10.636 -6.942,0 -12.57,-4.762 -12.57,-10.636 z"
         style="fill:#c0392b" /></g><g
       transform="translate(0,-74.25)"
       id="g48"><circle
         id="circle46"
         r="5.263"
         cy="159.737"
         cx="143.237"
         style="fill:#59913c" /></g><g
       transform="translate(0,-74.25)"
       id="g52"><circle
         id="circle50"
         r="5.263"
         cy="159.737"
         cx="168.5"
         style="fill:#59913c" /></g><g
       transform="translate(0,-74.25)"
       id="g56"><circle
         id="circle54"
         r="5.263"
         cy="159.737"
         cx="159.737"
         style="fill:#2ecc71" /></g></g><g
     transform="translate(-33,35)"
     id="g60" /><g
     transform="translate(-33,35)"
     id="g62" /><g
     transform="translate(-33,35)"
     id="g64" /><g
     transform="translate(-33,35)"
     id="g66" /><g
     transform="translate(-33,35)"
     id="g68" /><g
     transform="translate(-33,35)"
     id="g70" /><g
     transform="translate(-33,35)"
     id="g72" /><g
     transform="translate(-33,35)"
     id="g74" /><g
     transform="translate(-33,35)"
     id="g76" /><g
     transform="translate(-33,35)"
     id="g78" /><g
     transform="translate(-33,35)"
     id="g80" /><g
     transform="translate(-33,35)"
     id="g82" /><g
     transform="translate(-33,35)"
     id="g84" /><g
     transform="translate(-33,35)"
     id="g86" /><g
     transform="translate(-33,35)"
     id="g88" /></svg>