<?xml version="1.0" encoding="UTF-8" standalone="no"?>
<svg
   xmlns:dc="http://purl.org/dc/elements/1.1/"
   xmlns:cc="http://creativecommons.org/ns#"
   xmlns:rdf="http://www.w3.org/1999/02/22-rdf-syntax-ns#"
   xmlns:svg="http://www.w3.org/2000/svg"
   xmlns="http://www.w3.org/2000/svg"
   xml:space="preserve"
   enable-background="new 0 0 841.89 595.279"
   viewBox="0 0 524.786 524.78602"
   height="524.78601"
   width="524.78601"
   y="0px"
   x="0px"
   id="Layer_1"
   version="1.1"><metadata
     id="metadata59"><rdf:RDF><cc:Work
         rdf:about=""><dc:format>image/svg+xml</dc:format><dc:type
           rdf:resource="http://purl.org/dc/dcmitype/StillImage" /><dc:title></dc:title></cc:Work></rdf:RDF></metadata><defs
     id="defs57" /><g
     transform="translate(-163.51699,-35.247779)"
     id="g52"><path
       style="fill:#e5be9a"
       id="path2"
       d="m 687.521,449.513 v -1.567 c 0,-0.783 0,-2.35 -0.783,-3.133 L 646.791,148.74 H 204.247 l -39.946,296.856 v 0 c 0,1.567 -0.784,3.134 -0.784,4.7 0,40.729 94.775,97.124 261.61,97.124 144.903,0 261.61,-56.395 261.61,-97.124 0.784,0 0.784,0 0.784,-0.783 z" /><g
       style="opacity:0.1"
       id="g8"><rect
         style="fill:none"
         id="rect4"
         height="398.68201"
         width="518.521"
         y="149.52299"
         x="169" /><path
         style="fill:#867665"
         id="path6"
         d="m 687.521,449.513 v -1.567 c 0,-0.783 0,-2.35 -0.783,-3.133 L 646.791,148.74 h -48.563 l 34.463,253.777 c 0,0.783 0,2.35 0.784,3.133 v 1.566 0 0.784 c 0,40.729 -117.49,97.124 -261.61,97.124 -88.509,0 -156.652,-15.665 -201.299,-36.813 22.715,37.597 112.79,79.109 256.127,79.109 144.904,0 261.61,-56.395 261.61,-97.124 -0.782,0 -0.782,0 -0.782,-0.783 z" /></g><path
       style="fill:#f7d5b9"
       id="path10"
       d="m 646.791,149.523 c 0,36.03 -98.691,73.627 -220.881,73.627 -140.987,0 -220.88,-36.813 -220.88,-73.627 0,-40.729 98.691,-65.794 220.88,-65.794 121.407,-0.783 220.881,21.931 220.881,65.794" /><path
       style="fill:#79471d"
       id="path12"
       d="m 601.362,150.306 c 0,28.197 -79.893,48.563 -178.584,48.563 -113.573,0 -178.584,-20.365 -178.584,-48.563 0,-31.331 79.894,-50.912 178.584,-50.912 98.691,0 178.584,17.231 178.584,50.912" /><g
       style="opacity:0.3"
       id="g18"><rect
         style="fill:none"
         id="rect14"
         height="56.395"
         width="357.168"
         y="99.393997"
         x="244.194" /><path
         style="fill:#010101"
         id="path16"
         d="m 422.778,110.36 c 92.425,0 168.402,15.665 177.801,44.646 0.783,-1.567 0.783,-3.134 0.783,-5.483 0,-32.897 -79.893,-50.912 -178.584,-50.912 -98.69,0 -178.584,19.582 -178.584,50.912 0,1.566 0,3.916 0.784,5.483 9.398,-27.415 85.375,-44.646 177.8,-44.646" /></g><g
       style="opacity:0.3"
       id="g24"><rect
         style="fill:none"
         id="rect20"
         height="108.091"
         width="53.262001"
         y="227.06599"
         x="226.96201" /><path
         style="fill:#ffffff"
         id="path22"
         d="m 273.174,335.156 7.05,-93.209 c 0,0 -20.365,-2.35 -39.163,-14.882 l -14.099,99.475 c 15.665,4.7 30.547,7.832 46.212,8.616" /></g><g
       style="opacity:0.3"
       id="g30"><rect
         style="fill:none"
         id="rect26"
         height="130.021"
         width="63.444"
         y="345.33899"
         x="208.94701" /><path
         style="fill:#ffffff"
         id="path28"
         d="m 224.613,345.339 -15.666,111.223 c 0,0 28.198,17.232 54.046,18.799 l 9.398,-121.406 c -16.448,-0.784 -32.113,-4.7 -47.778,-8.616" /></g><g
       style="opacity:0.3"
       id="g36"><rect
         style="fill:none"
         id="rect32"
         height="34.464001"
         width="233.41299"
         y="142.47301"
         x="300.58801" /><path
         style="fill:#010101"
         id="path34"
         d="m 534.001,154.222 c 3.916,19.582 -90.075,23.498 -129.238,22.715 -39.946,-0.783 -104.174,-9.399 -104.174,-24.281 0,-8.616 71.276,-10.966 111.224,-10.183 39.162,0.783 120.622,3.134 122.188,11.749" /></g><path
       style="fill:#acc440"
       id="path38"
       d="m 434.527,151.089 c 0,0 -25.848,-42.296 113.573,-65.794 0,0 -18.798,79.893 -113.573,65.794" /><path
       style="fill:#acc440"
       id="path40"
       d="m 396.93,151.089 c 0,0 42.297,-35.247 -108.09,-60.312 0,0.001 6.266,75.977 108.09,60.312" /><path
       style="fill:#e26c59"
       id="path42"
       d="m 470.557,89.211 c 6.266,32.114 -15.665,68.145 -47.779,74.41 -32.113,6.266 -63.444,-11.749 -68.927,-43.862 -6.267,-32.114 9.399,-65.795 41.513,-71.277 31.331,-6.266 68.926,8.616 75.193,40.729" /><g
       style="opacity:0.2"
       id="g48"><rect
         style="fill:none"
         id="rect44"
         height="110.439"
         width="102.607"
         y="54.748001"
         x="368.733" /><path
         style="fill:#231f20"
         id="path46"
         d="m 442.36,54.748 c 7.049,6.266 12.532,14.882 14.099,25.064 6.266,32.113 -15.665,68.144 -47.779,74.41 -14.099,2.35 -27.414,0.783 -39.163,-4.7 13.315,12.532 32.897,18.015 53.262,14.099 32.114,-6.266 54.045,-42.296 47.779,-74.41 -3.134,-15.665 -14.1,-27.414 -28.198,-34.463" /></g><path
       style="fill:#ffffff"
       id="path50"
       d="m 377.349,71.98 c -2.35,6.266 -2.35,11.749 -5.483,10.966 -3.133,-1.567 -3.916,-7.05 -1.566,-12.532 2.35,-5.483 7.049,-9.399 10.183,-8.616 3.132,0.782 -0.785,3.915 -3.134,10.182" /></g></svg>