<svg width="231" height="231" xmlns="http://www.w3.org/2000/svg">
 <metadata id="metadata95">image/svg+xml</metadata>

 <g>
  <title>background</title>
  <rect fill="none" id="canvas_background" height="402" width="582" y="-1" x="-1"/>
 </g>
 <g>
  <title>Layer 1</title>
  <g id="g58">
   <g id="g12">
    <path stroke="#333333" fill="#c5e8d6" d="m150.438889,74.620369c-39.086998,0 -83.965996,24.306 -95.934982,42c-4.612,-10.233002 -16.757004,-28.666992 -31.015005,-28.666992c-18.224999,0 0,11.938995 0,26.666992c0,14.72802 -18.224999,26.66703 0,26.66703c14.258001,0 19.658003,-0.563004 24.271002,-10.796005c11.969002,17.694 63.592003,24.128998 102.678986,24.128998c32.189011,0 51.837006,-19.964005 60.599014,-31.684029c3.694992,-4.942993 3.694992,-11.688995 0,-16.631989c-8.762009,-11.720001 -28.410004,-31.684006 -60.599014,-31.684006z" id="path10"/>
   </g>
   <g stroke="#333333" fill="#f9b65f" id="g16">
    <path stroke="#333333" fill="#c5e8d6" d="m211.778625,103.711792c-8.761002,-11.720001 -28.410004,-31.684006 -60.598999,-31.684006c-11.956009,0 -24.450996,2.281006 -36.382988,5.945007l0,72.264999c12.326996,1.234009 24.895988,1.791 36.382988,1.791c32.188995,0 51.83699,-19.964005 60.598999,-31.68399c3.694992,-4.944 3.694992,-11.690002 0,-16.633011z" id="path14"/>
   </g>
   <g id="g20">
    <path stroke="#333333" fill="#aad4ff" d="m164.551361,73.480156c-3.975998,-0.688995 -8.179001,-1.082001 -12.630997,-1.082001c-32.153999,0 -68.210999,16.447998 -86.658997,32.132004c7.954002,4.07399 19.172005,6.584 34.109001,2.867996c34.832985,-8.667007 32.499992,3.332993 49.499992,0c10.421997,-2.042999 14.266006,-20.184006 15.681,-33.917999z" id="path18"/>
   </g>
   <g id="g24">
    <path stroke="#333333" fill="#aad4ff" d="m151.179626,72.768524c-11.957001,0 -24.452995,2.277008 -36.382988,5.94101l0,26.116989c18.470985,-1.727997 19.551979,5.645004 33.332985,2.942001c10.421997,-2.042999 14.266006,-20.184006 15.681,-33.917999c-3.975998,-0.688995 -8.179001,-1.082001 -12.630997,-1.082001z" id="path22"/>
   </g>
   <g id="g28">
    <path stroke="#333333" fill="#ffffff" d="m32.629631,155.268524l164.999992,0c18.225006,0 33,-14.774994 33,-33l0,0l-230.999993,0l0,0c0,18.225006 14.775001,33 33.000001,33z" id="path26"/>
   </g>
   <g id="g32">
    <path stroke="#333333" fill="#ffffff" d="m115.167007,122.268524l0,33l82.832993,0c18.225006,0 33,-14.774994 33,-33l-115.832993,0z" id="path30"/>
   </g>
   <g id="g36">
    <circle fill="#00bfbf" cx="172.12963" cy="103.768521" r="4.5" id="circle34"/>
   </g>
   <g id="g40">
    <path fill="#c0392b" d="m36.513634,124.143524c0,-10.658997 10.210999,-16.375 22.807999,-16.375c12.597,0 22.807999,5.716003 22.807999,16.375c0,10.658997 -10.210999,19.298996 -22.807999,19.298996c-12.597,0 -22.807999,-8.640991 -22.807999,-19.298996z" id="path38"/>
   </g>
   <g id="g44">
    <path fill="#c0392b" d="m145.752625,118.962524c0,-5.873993 5.628006,-9.024002 12.569992,-9.024002c6.942001,0 12.570007,3.150009 12.570007,9.024002c0,5.873993 -5.628006,10.636002 -12.570007,10.636002c-6.941986,0 -12.569992,-4.762009 -12.569992,-10.636002z" id="path42"/>
   </g>
   <g id="g48">
    <circle fill="#59913c" cx="109.86663" cy="119.005521" r="5.263" id="circle46"/>
   </g>
   <g id="g52">
    <circle fill="#59913c" cx="135.12963" cy="119.005521" r="5.263" id="circle50"/>
   </g>
   <g id="g56">
    <circle fill="#2ecc71" cx="126.36663" cy="119.005521" r="5.263" id="circle54"/>
   </g>
  </g>
  <g id="g60"/>
  <g id="g62"/>
  <g id="g64"/>
  <g id="g66"/>
  <g id="g68"/>
  <g id="g70"/>
  <g id="g72"/>
  <g id="g74"/>
  <g id="g76"/>
  <g id="g78"/>
  <g id="g80"/>
  <g id="g82"/>
  <g id="g84"/>
  <g id="g86"/>
  <g id="g88"/>
 </g>
</svg>