<?xml version="1.0" encoding="UTF-8" standalone="no"?>
<svg
   xmlns:dc="http://purl.org/dc/elements/1.1/"
   xmlns:cc="http://creativecommons.org/ns#"
   xmlns:rdf="http://www.w3.org/1999/02/22-rdf-syntax-ns#"
   xmlns:svg="http://www.w3.org/2000/svg"
   xmlns="http://www.w3.org/2000/svg"
   height="478.81699"
   width="478.81699"
   xml:space="preserve"
   viewBox="0 0 478.81698 478.81699"
   y="0px"
   x="0px"
   id="Layer_1"
   version="1.1"><metadata
     id="metadata75"><rdf:RDF><cc:Work
         rdf:about=""><dc:format>image/svg+xml</dc:format><dc:type
           rdf:resource="http://purl.org/dc/dcmitype/StillImage" /><dc:title></dc:title></cc:Work></rdf:RDF></metadata><defs
     id="defs73" /><path
     id="path10"
     d="m 141.41999,77.700992 c -0.127,0 -0.252,-0.004 -0.379,-0.011 -3.42,-0.206 -6.029,-3.142 -5.832,-6.561 0.065,-1.211 1.238,-28.895 -23.583,-37.169 -3.257,-1.087 -5.018,-4.606 -3.932,-7.864 1.087,-3.257 4.606,-5.019 7.864,-3.932 27.183,9.061 32.859,36.467 32.064,49.692 -0.202,3.303 -2.939,5.845 -6.202,5.845 z"
     style="fill:#995c0d" /><path
     id="path12"
     d="m 377.27999,166.89499 -39.373,311.922 h -151.803 l -39.375,-311.947 c 0,0 16.82,-39.834 44.142,-39.834 h 142.271 c 27.321,0 44.138,39.859 44.138,39.859 z"
     style="fill:#cc2105" /><polygon
     transform="translate(-12.059007,-8.0419923e-6)"
     id="polygon14"
     points="222.444,166.871 223.588,187.074 225.751,225.428 231.955,335.071 234.119,373.401 240.086,478.817 198.163,478.817 184.861,373.401 180.024,335.071 166.174,225.428 161.338,187.074 158.789,166.871 "
     style="fill:#a01102" /><polygon
     transform="translate(-12.059007,-8.0419923e-6)"
     id="polygon16"
     points="316.895,108.773 329.663,0 365.469,4.202 353.198,108.773 333.915,125.793 "
     style="fill:#b27214" /><path
     id="path18"
     d="m 359.15399,108.77299 h -18.015 -157.173 c -16.274,12.358 -24.535,23.026 -39.847,37.397 l 2.611,20.7 h 151.28 l 17.008,-6.888 19.295,6.888 h 18.015 24.766 l 0.186,0.025 7.335,-58.122 c 0.001,0 -25.461,0 -25.461,0 z"
     style="fill:#e6e6e6" /><polygon
     transform="translate(-12.059007,-8.0419923e-6)"
     id="polygon20"
     points="310.069,166.871 316.895,108.773 353.198,108.773 346.373,166.871 330.599,166.871 "
     style="fill:#995c0d" /><path
     id="path22"
     d="m 184.59999,101.21398 c 0,2.574 -0.211,5.097 -0.634,7.559 l -39.847,37.397 c -1.554,0.162 -3.133,0.249 -4.724,0.249 -24.965,0 -45.192997,-20.24 -45.192997,-45.205 0,-24.964988 20.227997,-45.192988 45.192997,-45.192988 24.965,0 45.205,20.228 45.205,45.192988 z"
     style="fill:#f7b239" /><path
     id="path24"
     d="m 183.96599,108.77298 h -44.571 l 3.702,29.311 c -1.908,-1.355 -3.707,-2.856 -5.381,-4.484 -0.144,-0.14 -0.296,-0.275 -0.439,-0.418 -0.126,-0.126 -0.242,-0.257 -0.366,-0.384 -7.959,-8.146 -12.871,-19.282 -12.871,-31.571 0,-0.002 0,-0.005 0,-0.007 0,-0.001 0,-0.004 0,-0.005 0,-0.019 10e-4,-0.037 10e-4,-0.055 0.001,-0.699 0.021,-1.393988 0.052,-2.084988 0.011,-0.235 0.03,-0.469 0.044,-0.702 0.03,-0.471 0.063,-0.941 0.107,-1.407 0.027,-0.293 0.06,-0.586 0.092,-0.878 0.042,-0.369 0.088,-0.736 0.14,-1.103 0.053,-0.385 0.109,-0.768 0.172,-1.15 0.009,-0.055 0.015,-0.111 0.025,-0.165 l 0.006,-0.005 c 2.755,-16.376 14.311,-29.752 29.639,-35.111 -4.668,-1.635 -9.684,-2.53 -14.913,-2.53 -0.002,0 -0.004,0 -0.006,0 -0.002,0 -0.004,0 -0.006,0 -22.39,0 -40.957997,16.274 -44.551997,37.641 l -0.005,0.004 c -0.01,0.055 -0.015,0.111 -0.025,0.165 -0.062,0.382 -0.118,0.766 -0.172,1.15 -0.051,0.366 -0.098,0.734 -0.14,1.103 -0.034,0.292 -0.065,0.584 -0.092,0.878 -0.044,0.467 -0.078,0.936 -0.107,1.407 -0.015,0.234 -0.034,0.467 -0.044,0.702 -0.032,0.691 -0.052,1.385988 -0.052,2.084988 0,0.019 -10e-4,0.037 -10e-4,0.055 0,10e-4 0,0.004 0,0.005 0,0.002 0,0.005 0,0.007 0,12.29 4.912,23.426 12.870997,31.571 0.123,0.127 0.241,0.259 0.366,0.384 0.143,0.143 0.293,0.277 0.439,0.418 8.141,7.928 19.253,12.819 31.517,12.819 0.002,0 0.004,0 0.006,0 0.002,0 0.004,0 0.006,0 1.593,0 3.162,-0.094 4.711,-0.256 l 0.001,0.007 c 0.067,-0.007 0.134,-0.019 0.201,-0.026 0.093,-0.01 0.188,-0.014 0.281,-0.025 0.041,-0.005 0.073,-0.019 0.112,-0.025 19.963,-2.337 35.952,-17.673 39.252,-37.32 z"
     style="fill:#e09b2d" /><g
     transform="translate(-12.059007,-8.0419923e-6)"
     id="g38"><circle
       id="circle30"
       r="9.3240004"
       cy="324.715"
       cx="323.13599"
       style="fill:#a01102" /><circle
       id="circle32"
       r="9.3240004"
       cy="232.39"
       cx="314.297"
       style="fill:#a01102" /><circle
       id="circle34"
       r="9.3240004"
       cy="345.44"
       cx="251.02699"
       style="fill:#a01102" /><circle
       id="circle36"
       r="9.3240004"
       cy="410.43799"
       cx="291.47"
       style="fill:#a01102" /></g><g
     transform="translate(-106.261,7.8320312e-6)"
     id="g40" /><g
     transform="translate(-106.261,7.8320312e-6)"
     id="g42" /><g
     transform="translate(-106.261,7.8320312e-6)"
     id="g44" /><g
     transform="translate(-106.261,7.8320312e-6)"
     id="g46" /><g
     transform="translate(-106.261,7.8320312e-6)"
     id="g48" /><g
     transform="translate(-106.261,7.8320312e-6)"
     id="g50" /><g
     transform="translate(-106.261,7.8320312e-6)"
     id="g52" /><g
     transform="translate(-106.261,7.8320312e-6)"
     id="g54" /><g
     transform="translate(-106.261,7.8320312e-6)"
     id="g56" /><g
     transform="translate(-106.261,7.8320312e-6)"
     id="g58" /><g
     transform="translate(-106.261,7.8320312e-6)"
     id="g60" /><g
     transform="translate(-106.261,7.8320312e-6)"
     id="g62" /><g
     transform="translate(-106.261,7.8320312e-6)"
     id="g64" /><g
     transform="translate(-106.261,7.8320312e-6)"
     id="g66" /><g
     transform="translate(-106.261,7.8320312e-6)"
     id="g68" /></svg>