<svg width="524.786" height="524.78602" xmlns="http://www.w3.org/2000/svg">
 <metadata id="metadata59">image/svg+xml</metadata>

 <g>
  <title>background</title>
  <rect fill="none" id="canvas_background" height="402" width="582" y="-1" x="-1"/>
 </g>
 <g>
  <title>Layer 1</title>
  <g id="g52">
   <path stroke-width="2" stroke="#191919" fill="#ffff56" d="m525.004028,414.265228l0,-1.566986c0,-0.78302 0,-2.350006 -0.78302,-3.133026l-39.94696,-296.07299l-442.544037,0l-39.945999,296.85598l0,0c0,1.567017 -0.784012,3.134003 -0.784012,4.700012c0,40.729004 94.775009,97.123962 261.609985,97.123962c144.903015,0 261.610046,-56.394958 261.610046,-97.123962c0.783997,0 0.783997,0 0.783997,-0.78299z" id="path2"/>
   <g opacity="0.1" id="g8">
    <rect stroke="#ffaaaa" fill="#ffff56" x="-639.516983" y="117.27521" width="518.521" height="398.68201" id="rect4"/>
    <path stroke="#ffaaaa" fill="#ffff56" d="m-123.995972,419.265228l0,-1.566986c0,-0.78302 0,-2.350006 -0.78302,-3.133026l-39.94696,-296.07299l-48.562988,0l34.463013,253.777c0,0.78299 0,2.350006 0.783997,3.132996l0,1.56601l0,0l0,0.783997c0,40.729004 -117.48999,97.123993 -261.610046,97.123993c-88.508972,0 -156.651978,-15.664978 -201.29895,-36.812988c22.714966,37.596985 112.789978,79.108948 256.127014,79.108948c144.903992,0 261.609985,-56.394958 261.609985,-97.123962c-0.781982,0 -0.781982,0 -0.781982,-0.78299l-0.000061,0z" id="path6"/>
   </g>
   <path stroke-width="2" stroke="#191919" fill="#f7f796" d="m484.274048,114.275215c0,36.029991 -98.690979,73.627007 -220.880981,73.627007c-140.987015,0 -220.880035,-36.813019 -220.880035,-73.627007c0,-40.729004 98.690994,-65.793999 220.880035,-65.793999c121.406982,-0.782997 220.880981,21.931007 220.880981,65.793999" id="path10"/>
   <path fill="#79471d" d="m438.845032,115.05822c0,28.196999 -79.893005,48.562996 -178.583984,48.562996c-113.573044,0 -178.58403,-20.36499 -178.58403,-48.562996c0,-31.331001 79.894012,-50.912003 178.58403,-50.912003c98.690979,0 178.583984,17.231003 178.583984,50.912003" id="path12"/>
   <g opacity="0.3" id="g18">
    <rect fill="none" x="81.677017" y="64.146217" width="357.168" height="56.395" id="rect14"/>
    <path fill="#010101" d="m260.261047,75.112221c92.424988,0 168.401978,15.665001 177.800964,44.645996c0.78302,-1.567001 0.78302,-3.134003 0.78302,-5.483002c0,-32.896996 -79.893005,-50.911995 -178.583984,-50.911995c-98.690018,0 -178.584015,19.582001 -178.584015,50.911995c0,1.56601 0,3.916 0.783997,5.483002c9.397995,-27.414993 85.374985,-44.645996 177.800018,-44.645996" id="path16"/>
   </g>
   <g opacity="0.3" id="g24">
    <rect fill="none" x="64.445027" y="191.81821" width="53.262001" height="108.091" id="rect20"/>
    <path fill="#ffffff" d="m110.657028,299.908234l7.049988,-93.209015c0,0 -20.36499,-2.349976 -39.162994,-14.881989l-14.098999,99.475006c15.665009,4.699982 30.546997,7.832001 46.212006,8.615997" id="path22"/>
   </g>
   <g opacity="0.3" id="g30">
    <rect fill="none" x="46.430027" y="310.09121" width="63.444" height="130.021" id="rect26"/>
    <path fill="#ffffff" d="m62.096024,310.091217l-15.666,111.222992c0,0 28.197998,17.231995 54.046005,18.799011l9.39801,-121.406006c-16.448013,-0.783997 -32.113007,-4.699982 -47.778015,-8.615997" id="path28"/>
   </g>
   <g opacity="0.3" id="g36">
    <rect fill="none" x="138.071027" y="107.22523" width="233.41299" height="34.464001" id="rect32"/>
    <path fill="#010101" d="m371.484009,118.97422c3.916016,19.581993 -90.075012,23.498009 -129.238022,22.714989c-39.946014,-0.78299 -104.174011,-9.398987 -104.174011,-24.280983c0,-8.616013 71.276001,-10.966003 111.223999,-10.182999c39.161972,0.78299 120.622055,3.133987 122.188034,11.748993" id="path34"/>
   </g>
   <path fill="#acc440" d="m272.01001,115.841225c0,0 -25.847977,-42.296005 113.573059,-65.793991c0,0 -18.798035,79.892982 -113.573059,65.793991" id="path38"/>
   <path fill="#acc440" d="m234.41301,115.841225c0,0 42.297012,-35.247002 -108.089996,-60.312004c0,0.000999 6.265991,75.977005 108.089996,60.312004" id="path40"/>
   <path fill="#e26c59" d="m308.040039,53.963219c6.265991,32.113998 -15.665039,68.145004 -47.778992,74.410011c-32.113022,6.265991 -63.444016,-11.749016 -68.927017,-43.862007c-6.266998,-32.114006 9.398987,-65.795002 41.513,-71.277004c31.331009,-6.265999 68.92598,8.616001 75.193008,40.729" id="path42"/>
   <g opacity="0.2" id="g48">
    <rect fill="none" x="209.216017" y="16.500221" width="102.607" height="110.439" id="rect44"/>
    <path fill="#231f20" d="m282.843018,16.500221c7.049011,6.265999 12.531982,14.881996 14.098999,25.063995c6.265991,32.113007 -15.665039,68.143997 -47.779007,74.410004c-14.098999,2.350006 -27.414001,0.783005 -39.162994,-4.699997c13.315002,12.53199 32.897003,18.014992 53.262009,14.099007c32.113953,-6.266014 54.044983,-42.296013 47.778992,-74.410011c-3.134033,-15.665001 -14.100037,-27.413998 -28.197998,-34.462997" id="path46"/>
   </g>
   <path fill="#ffffff" d="m214.832016,36.732224c-2.350006,6.265999 -2.350006,11.748993 -5.483002,10.965996c-3.132996,-1.567001 -3.915985,-7.049995 -1.56601,-12.531998c2.350006,-5.483002 7.049011,-9.399002 10.183014,-8.616001c3.131989,0.782001 -0.785004,3.914997 -3.134003,10.182003" id="path50"/>
  </g>
 </g>
</svg>