<?xml version="1.0" encoding="UTF-8" standalone="no"?>
<svg
   xmlns:dc="http://purl.org/dc/elements/1.1/"
   xmlns:cc="http://creativecommons.org/ns#"
   xmlns:rdf="http://www.w3.org/1999/02/22-rdf-syntax-ns#"
   xmlns:svg="http://www.w3.org/2000/svg"
   xmlns="http://www.w3.org/2000/svg"
   height="382.07831"
   width="382.07831"
   version="1.1"
   id="Layer_1"
   x="0px"
   y="0px"
   viewBox="0 0 382.07832 382.07832"
   xml:space="preserve"><metadata
     id="metadata71"><rdf:RDF><cc:Work
         rdf:about=""><dc:format>image/svg+xml</dc:format><dc:type
           rdf:resource="http://purl.org/dc/dcmitype/StillImage" /><dc:title></dc:title></cc:Work></rdf:RDF></metadata><defs
     id="defs69" /><path
     style="fill:#edc92f"
     d="m 191.25632,80.497654 c -61.053,0 -110.545008,49.487996 -110.545008,110.543996 0,61.046 49.492008,110.539 110.545008,110.539 61.049,0 110.542,-49.493 110.542,-110.539 0,-61.055 -49.493,-110.543996 -110.542,-110.543996 z"
     id="path4" /><g
     transform="translate(-57.038688,-57.039349)"
     id="g24"><path
       style="fill:#f4d65b"
       d="m 248.295,171.983 c -42.029,0 -76.099,34.067 -76.099,76.098 0,42.024 34.069,76.094 76.099,76.094 42.025,0 76.095,-34.07 76.095,-76.094 0,-42.031 -34.07,-76.098 -76.095,-76.098 z"
       id="path6" /><circle
       style="fill:#f4d65b"
       cx="341.19901"
       cy="248.269"
       r="9.8039999"
       id="circle8" /><circle
       style="fill:#f4d65b"
       cx="155.839"
       cy="248.269"
       r="9.8039999"
       id="circle10" /><circle
       style="fill:#f4d65b"
       cx="314.04901"
       cy="313.79901"
       r="9.8039999"
       id="circle12" /><circle
       style="fill:#f4d65b"
       cx="182.989"
       cy="182.729"
       r="9.8039999"
       id="circle14" /><circle
       style="fill:#f4d65b"
       cx="248.519"
       cy="340.94901"
       r="9.8030005"
       id="circle16" /><circle
       style="fill:#f4d65b"
       cx="248.519"
       cy="155.589"
       r="9.8030005"
       id="circle18" /><circle
       style="fill:#f4d65b"
       cx="182.989"
       cy="313.79901"
       r="9.8030005"
       id="circle20" /><circle
       style="fill:#f4d65b"
       cx="314.05899"
       cy="182.729"
       r="9.8030005"
       id="circle22" /></g><g
     transform="translate(-57.038688,-57.039349)"
     id="g34"><path
       style="fill:#edc92f"
       d="m 85.762,193.745 c -0.018,-2.594 -9.413,-2.526 -9.398,0.066 l -3.479,134.156 c 0.018,2.592 4.105,4.666 9.135,4.632 5.022,-0.037 9.088,-2.17 9.068,-4.762 z"
       id="path26" /><path
       style="fill:#edc92f"
       d="m 103.408,172.171 c -0.017,-2.385 -1.387,-4.302 -3.057,-4.289 -1.67,0.013 -3.016,1.95 -2.999,4.332 l 0.291,18.525 c -1.856,-0.387 -4.259,-0.734 -7.339,-0.956 l -0.281,-22.911 c -0.016,-2.38 -1.384,-4.299 -3.056,-4.287 -1.673,0.01 -3.015,1.948 -3,4.329 l 0.282,22.641 c -1.462,-0.013 -3.025,-0.005 -4.713,0.04 -0.854,0.022 -1.672,0.053 -2.475,0.089 L 76.784,167.25 c -0.016,-2.381 -1.383,-4.301 -3.057,-4.291 -1.673,0.01 -3.013,1.947 -2.998,4.333 l 0.285,22.859 c -3.111,0.342 -5.642,0.795 -7.632,1.254 L 63.09,172.448 c -0.021,-2.384 -1.387,-4.302 -3.059,-4.291 -1.671,0.011 -3.016,1.948 -2.992,4.333 l 0.311,21.375 c 0,0.372 0.046,0.73 0.109,1.076 0.378,22.459 5.324,33.324 23.283,33.202 17.903,-0.122 22.729,-10.985 22.828,-33.302 0.087,-0.412 0.146,-0.844 0.143,-1.297 z"
       id="path28" /><path
       style="fill:#edc92f"
       d="m 420.555,195.641 c 0.022,-2.598 -2.059,-4.722 -4.654,-4.747 -2.596,-0.022 -4.721,2.062 -4.742,4.658 l -5.666,134.073 c -0.024,2.597 4.033,4.735 9.056,4.787 5.029,0.047 9.127,-2.022 9.149,-4.612 z"
       id="path30" /><path
       style="fill:#edc92f"
       d="m 415.169,161.745 c -13.228,0 -23.949,19.458 -23.949,41.41 0,13.228 10.722,23.949 23.949,23.949 13.227,0 23.948,-10.722 23.948,-23.949 0,-21.453 -10.722,-41.41 -23.948,-41.41 z"
       id="path32" /></g><g
     transform="translate(-57.038684,23.458317)"
     id="g36" /><g
     transform="translate(-57.038684,23.458317)"
     id="g38" /><g
     transform="translate(-57.038684,23.458317)"
     id="g40" /><g
     transform="translate(-57.038684,23.458317)"
     id="g42" /><g
     transform="translate(-57.038684,23.458317)"
     id="g44" /><g
     transform="translate(-57.038684,23.458317)"
     id="g46" /><g
     transform="translate(-57.038684,23.458317)"
     id="g48" /><g
     transform="translate(-57.038684,23.458317)"
     id="g50" /><g
     transform="translate(-57.038684,23.458317)"
     id="g52" /><g
     transform="translate(-57.038684,23.458317)"
     id="g54" /><g
     transform="translate(-57.038684,23.458317)"
     id="g56" /><g
     transform="translate(-57.038684,23.458317)"
     id="g58" /><g
     transform="translate(-57.038684,23.458317)"
     id="g60" /><g
     transform="translate(-57.038684,23.458317)"
     id="g62" /><g
     transform="translate(-57.038684,23.458317)"
     id="g64" /></svg>