<svg width="388.07831999999996" height="371.07832" xmlns="http://www.w3.org/2000/svg">
 <metadata id="metadata71">image/svg+xml</metadata>

 <g>
  <title>background</title>
  <rect fill="none" id="canvas_background" height="373.07832" width="390.07832" y="-1" x="-1"/>
 </g>
 <g>
  <title>Layer 1</title>
  <path stroke-width="4" stroke="#4c4c4c" fill="#edc92f" id="path4" d="m191.256317,80.497658c-61.052994,0 -110.545006,49.487999 -110.545006,110.543999c0,61.046005 49.492012,110.539001 110.545006,110.539001c61.048996,0 110.541992,-49.492996 110.541992,-110.539001c0,-61.055008 -49.492996,-110.543999 -110.541992,-110.543999z"/>
  <g id="g24">
   <path fill="#f4d65b" id="path6" d="m191.256317,115.943649c-42.028992,0 -76.099007,34.067001 -76.099007,76.097992c0,42.024017 34.069008,76.094009 76.099007,76.094009c42.024994,0 76.094971,-34.069992 76.094971,-76.094009c0,-42.030991 -34.069977,-76.097992 -76.094971,-76.097992z"/>
   <circle fill="#f4d65b" id="circle8" r="9.804001" cy="192.229651" cx="284.160321"/>
   <circle fill="#f4d65b" id="circle10" r="9.804001" cy="192.229651" cx="98.800311"/>
   <circle fill="#f4d65b" id="circle12" r="9.803993" cy="257.759661" cx="257.010321"/>
   <circle fill="#f4d65b" id="circle14" r="9.803997" cy="126.689651" cx="125.950311"/>
   <circle fill="#f4d65b" id="circle16" r="9.802994" cy="284.909661" cx="191.480311"/>
   <circle fill="#f4d65b" id="circle18" r="9.802994" cy="99.549651" cx="191.480311"/>
   <circle fill="#f4d65b" id="circle20" r="9.80299" cy="257.759661" cx="125.950311"/>
   <circle fill="#f4d65b" id="circle22" r="9.802994" cy="126.689651" cx="257.020301"/>
  </g>
  <g id="g36"/>
  <g id="g38"/>
  <g id="g40"/>
  <g id="g42"/>
  <g id="g44"/>
  <g id="g46"/>
  <g id="g48"/>
  <g id="g50"/>
  <g id="g52"/>
  <g id="g54"/>
  <g id="g56"/>
  <g id="g58"/>
  <g id="g60"/>
  <g id="g62"/>
  <g id="g64"/>
  <g id="g34">
   <path stroke-width="3" stroke="#4c4c4c" fill="#edc92f" id="path26" d="m32.950043,136.9431c-0.017998,-2.593994 -9.413002,-2.526001 -9.398003,0.065994l-3.478996,134.156036c0.017998,2.59198 4.104996,4.665985 9.135002,4.631989c5.021996,-0.036987 9.087994,-2.169983 9.067989,-4.761993l-5.325993,-134.092026z"/>
   <path stroke-width="3" stroke="#4c4c4c" fill="#edc92f" id="path28" d="m50.596035,115.36911c-0.016998,-2.384995 -1.387001,-4.302002 -3.056999,-4.289001c-1.669998,0.013 -3.015999,1.949997 -2.999001,4.332001l0.291,18.524994c-1.856003,-0.386993 -4.259003,-0.733994 -7.339005,-0.955994l-0.280998,-22.910995c-0.015999,-2.380005 -1.383995,-4.298996 -3.055996,-4.287003c-1.672997,0.009995 -3.014999,1.947998 -3,4.328995l0.282005,22.641006c-1.462006,-0.013 -3.025002,-0.005005 -4.713005,0.039993c-0.853996,0.022003 -1.671997,0.053009 -2.474998,0.089005l-0.277,-22.434006c-0.015999,-2.380997 -1.383003,-4.300995 -3.056999,-4.291c-1.673004,0.009995 -3.013,1.947006 -2.998001,4.333008l0.285004,22.858994c-3.111,0.341995 -5.642006,0.794998 -7.632004,1.253998l-0.291996,-18.957001c-0.021,-2.384003 -1.387001,-4.302002 -3.059002,-4.291c-1.670998,0.011002 -3.015999,1.947998 -2.991997,4.333008l0.310997,21.375c0,0.371994 0.046001,0.729996 0.109001,1.075989c0.378002,22.459 5.324001,33.324005 23.283005,33.202011c17.902996,-0.122009 22.728992,-10.985001 22.827991,-33.302002c0.086998,-0.412003 0.146004,-0.844009 0.142998,-1.296997l-0.305,-21.373001z"/>
   <path stroke-width="3" stroke="#4c4c4c" fill="#edc92f" id="path30" d="m367.743042,138.839111c0.022003,-2.598007 -2.05899,-4.722 -4.653992,-4.746994c-2.596008,-0.022003 -4.721008,2.061996 -4.742004,4.65799l-5.666016,134.073013c-0.023987,2.597015 4.03302,4.735016 9.056,4.787018c5.029022,0.046997 9.127014,-2.022003 9.149017,-4.612l-3.143005,-134.159027z"/>
   <path stroke-width="3" stroke="#4c4c4c" fill="#edc92f" id="path32" d="m362.357056,104.9431c-13.227997,0 -23.949005,19.457993 -23.949005,41.410004c0,13.227997 10.722015,23.94899 23.949005,23.94899c13.22699,0 23.947998,-10.722 23.947998,-23.94899c0,-21.453003 -10.721985,-41.410004 -23.947998,-41.410004z"/>
  </g>
  <path d="m21.231386,88.769966c0,1 0,2 0,3c0,2 0.115866,2.963837 1,6c1.152769,3.958679 2.632973,10.198006 6,16c1.809723,3.118477 6.144293,8.934143 6.999998,11c1.210152,2.92157 1.458805,3.693428 2,4.999992c0.382683,0.923874 0,2 0,3c0,1 0,2 0,3c0,1 0,2 0,3c0,1 -0.382683,2.076126 0,3c1.082394,2.613129 4,5 5,7c1,2 1.385098,3.372009 4,7c0.826904,1.147263 2,2 4,4c1,1 2,2 3,3c1,1 2.076126,1.61731 3,2c1.306564,0.541199 2,1 2,2c0,1 1.746399,4.161194 5,9c2.789948,4.149246 5.486259,7.823746 6,10c0.459511,1.946503 1.224205,8.902832 2,11c1.430496,3.867004 1,6 1,8c0,3 0.640732,5.051651 0,9c-0.506538,3.121445 -1,4 -2,6c-2,4 -4.385094,7.372009 -7,11c-0.826904,1.147263 -2.2565,2.796997 -3,4c-1.662506,2.689987 -2.496223,3.907791 -3,8c-0.488731,3.970032 1,7 2,9c2,4 4,7 5,8c2,2 3.186012,2.692535 5,4c1.14727,0.826904 3,3 4,4l1,1l1,1" id="svg_2" fill-opacity="null" stroke-width="0" stroke="#000000" fill="none"/>
 </g>
</svg>