<svg width="302" height="469.22607" xmlns="http://www.w3.org/2000/svg">
 <metadata id="metadata91">image/svg+xml</metadata>

 <g>
  <title>background</title>
  <rect x="-1" y="-1" width="304" height="471.22607" id="canvas_background" fill="none"/>
 </g>
 <g>
  <title>Layer 1</title>
  <path d="m295,443.296906c0,12.661865 -9.032837,22.929138 -20.175598,22.929138l-249.648792,0c-11.139489,0.000031 -20.17561,-10.267273 -20.17561,-22.929138l0,-364.137962c0,-12.665596 9.03612,-22.932884 20.17561,-22.932884l249.647968,0c11.142761,0 20.175629,10.267288 20.175629,22.932884l0.000793,364.137962z" id="path2" stroke-width="1.87461" fill="#b88c21" stroke="#000000"/>
  <rect x="15.080502" y="69.752998" width="267.81799" height="386.866" id="rect4" fill="#d5d0bb"/>
  <rect x="15.080503" y="68.729004" width="268.817989" height="387.172004" id="rect6" fill="#f1ebd4"/>
  <g id="g12">
   <path d="m238.732986,67.198021c0,5.411407 -11.010986,9.798141 -24.589996,9.798141l-126.286011,0c-13.579002,0 -24.59,-4.386734 -24.59,-9.798141l0,-10.403709c0,-5.411411 11.010998,-9.798153 24.59,-9.798153l126.282013,0c13.578979,0 24.589996,4.386742 24.589996,9.798153l0,10.403709l0.003998,0z" id="path8" stroke-width="0.631186" fill="#7e7b73" stroke="#000000"/>
   <path d="m150.998001,0c-17.003998,0 -30.789001,13.785 -30.789001,30.792999c0,17.004002 13.785004,30.789001 30.789001,30.789001c17.007996,0 30.792999,-13.785 30.792999,-30.789001c0,-17.007999 -13.785004,-30.792999 -30.792999,-30.792999zm0,44.477001c-7.554001,0 -13.684006,-6.125999 -13.684006,-13.684002c0,-7.557999 6.130005,-13.684 13.684006,-13.684c7.558014,0 13.687988,6.126001 13.687988,13.684c-0.003998,7.554001 -6.129974,13.684002 -13.687988,13.684002z" id="path10" fill="#7e7b73" stroke="#000000"/>
  </g>
  <g id="g56"/>
  <g id="g58"/>
  <g id="g60"/>
  <g id="g62"/>
  <g id="g64"/>
  <g id="g66"/>
  <g id="g68"/>
  <g id="g70"/>
  <g id="g72"/>
  <g id="g74"/>
  <g id="g76"/>
  <g id="g78"/>
  <g id="g80"/>
  <g id="g82"/>
  <g id="g84"/>
 </g>
</svg>