<?xml version="1.0" encoding="iso-8859-1"?>
<!-- Generator: Adobe Illustrator 19.0.0, SVG Export Plug-In . SVG Version: 6.00 Build 0)  -->
<svg version="1.1" id="Layer_1" xmlns="http://www.w3.org/2000/svg" xmlns:xlink="http://www.w3.org/1999/xlink" x="0px" y="0px"
	 viewBox="0 0 512 512" style="enable-background:new 0 0 512 512;" xml:space="preserve">
<path style="fill:#B88C21;" d="M432.755,487.41c0,13.579-11.011,24.59-24.594,24.59H103.84c-13.579,0-24.594-11.011-24.594-24.59
	V96.896c0-13.583,11.015-24.594,24.594-24.594H408.16c13.583,0,24.594,11.011,24.594,24.594L432.755,487.41L432.755,487.41z"/>
<rect x="122.081" y="97.171" style="fill:#D5D0BB;" width="267.818" height="386.866"/>
<rect x="122.081" y="94.147" style="fill:#F1EBD4;" width="267.818" height="378.172"/>
<g>
	<path style="fill:#7E7B73;" d="M343.731,98.53c0,13.583-11.011,24.594-24.59,24.594H192.855c-13.579,0-24.59-11.011-24.59-24.594
		V72.416c0-13.583,11.011-24.594,24.59-24.594h126.282c13.579,0,24.59,11.011,24.59,24.594V98.53H343.731z"/>
	<path style="fill:#7E7B73;" d="M255.998,0c-17.004,0-30.789,13.785-30.789,30.793c0,17.004,13.785,30.789,30.789,30.789
		c17.008,0,30.793-13.785,30.793-30.789C286.791,13.785,273.006,0,255.998,0z M255.998,44.477c-7.554,0-13.684-6.126-13.684-13.684
		s6.13-13.684,13.684-13.684c7.558,0,13.688,6.126,13.688,13.684C269.682,38.347,263.556,44.477,255.998,44.477z"/>
</g>
<g style="opacity:0.4;">
	<path style="opacity:0.4;enable-background:new    ;" d="M352.45,172.276c0,3.211-2.604,5.815-5.815,5.815H245.339
		c-3.211,0-5.815-2.604-5.815-5.815l0,0c0-3.211,2.608-5.815,5.815-5.815h101.3C349.849,166.461,352.45,169.065,352.45,172.276
		L352.45,172.276z"/>
	<path style="opacity:0.4;enable-background:new    ;" d="M352.45,215.35c0,3.211-2.604,5.815-5.815,5.815H245.339
		c-3.211,0-5.815-2.604-5.815-5.815l0,0c0-3.211,2.608-5.815,5.815-5.815h101.3C349.849,209.535,352.45,212.135,352.45,215.35
		L352.45,215.35z"/>
	<path style="opacity:0.4;enable-background:new    ;" d="M352.45,258.424c0,3.211-2.604,5.815-5.815,5.815H245.339
		c-3.211,0-5.815-2.604-5.815-5.815l0,0c0-3.211,2.608-5.815,5.815-5.815h101.3C349.849,252.609,352.45,255.213,352.45,258.424
		L352.45,258.424z"/>
	<path style="opacity:0.4;enable-background:new    ;" d="M352.45,301.498c0,3.211-2.604,5.815-5.815,5.815H245.339
		c-3.211,0-5.815-2.604-5.815-5.815l0,0c0-3.211,2.608-5.815,5.815-5.815h101.3C349.849,295.683,352.45,298.284,352.45,301.498
		L352.45,301.498z"/>
	<path style="opacity:0.4;enable-background:new    ;" d="M352.45,387.642c0,3.211-2.604,5.815-5.815,5.815H245.339
		c-3.211,0-5.815-2.604-5.815-5.815l0,0c0-3.211,2.608-5.815,5.815-5.815h101.3C349.849,381.827,352.45,384.432,352.45,387.642
		L352.45,387.642z"/>
	<path style="opacity:0.4;enable-background:new    ;" d="M352.45,430.716c0,3.211-2.604,5.815-5.815,5.815H245.339
		c-3.211,0-5.815-2.604-5.815-5.815l0,0c0-3.211,2.608-5.815,5.815-5.815h101.3C349.849,424.902,352.45,427.506,352.45,430.716
		L352.45,430.716z"/>
	<path style="opacity:0.4;enable-background:new    ;" d="M352.45,344.568c0,3.211-2.604,5.815-5.815,5.815H245.339
		c-3.211,0-5.815-2.604-5.815-5.815l0,0c0-3.211,2.608-5.815,5.815-5.815h101.3C349.849,338.753,352.45,341.358,352.45,344.568
		L352.45,344.568z"/>
</g>
<g style="opacity:0.2;">
	<path d="M204.04,212.03h-44.493c-1.674,0-3.033-1.359-3.033-3.033v-44.493c0-1.674,1.359-3.033,3.033-3.033h44.493
		c1.674,0,3.033,1.359,3.033,3.033v44.493C207.073,210.672,205.714,212.03,204.04,212.03z M162.579,205.965h38.428v-38.428h-38.428
		V205.965z"/>
</g>
<g style="opacity:0.2;">
	<path d="M204.04,288.526h-44.493c-1.674,0-3.033-1.359-3.033-3.033V241c0-1.674,1.359-3.033,3.033-3.033h44.493
		c1.674,0,3.033,1.359,3.033,3.033v44.493C207.073,287.167,205.714,288.526,204.04,288.526z M162.579,282.46h38.428v-38.428h-38.428
		V282.46z"/>
</g>
<g style="opacity:0.2;">
	<path d="M204.04,365.026h-44.493c-1.674,0-3.033-1.359-3.033-3.033v-44.493c0-1.674,1.359-3.033,3.033-3.033h44.493
		c1.674,0,3.033,1.359,3.033,3.033v44.493C207.073,363.667,205.714,365.026,204.04,365.026z M162.579,358.96h38.428v-38.428h-38.428
		V358.96z"/>
</g>
<g style="opacity:0.2;">
	<path d="M204.04,441.525h-44.493c-1.674,0-3.033-1.359-3.033-3.033v-44.497c0-1.674,1.359-3.033,3.033-3.033h44.493
		c1.674,0,3.033,1.359,3.033,3.033v44.493C207.073,440.167,205.714,441.525,204.04,441.525z M162.579,435.46h38.428v-38.428h-38.428
		V435.46z"/>
</g>
<g>
	<path style="fill:#C81702;" d="M184.274,198.379c-1.132,0-2.184-0.631-2.705-1.654c-3.967-7.804-10.979-10.17-11.048-10.194
		c-1.593-0.522-2.459-2.232-1.937-3.825c0.522-1.593,2.22-2.463,3.825-1.941c0.307,0.101,6.32,2.127,11.298,8.201
		c3.886-7.574,13.288-20.817,33.159-26.244c1.597-0.437,3.288,0.51,3.724,2.127c0.441,1.618-0.514,3.284-2.127,3.724
		c-24.626,6.725-31.024,26.806-31.282,27.655c-0.36,1.181-1.407,2.03-2.637,2.139C184.448,198.374,184.363,198.379,184.274,198.379z
		"/>
	<path style="fill:#C81702;" d="M184.274,426.717c-1.132,0-2.184-0.631-2.705-1.654c-3.967-7.804-10.979-10.17-11.048-10.194
		c-1.593-0.522-2.459-2.232-1.937-3.825s2.22-2.467,3.825-1.941c0.307,0.101,6.32,2.127,11.298,8.201
		c3.886-7.574,13.288-20.817,33.159-26.244c1.597-0.445,3.288,0.509,3.724,2.127c0.441,1.617-0.514,3.284-2.127,3.724
		c-24.626,6.725-31.024,26.806-31.282,27.655c-0.36,1.181-1.407,2.03-2.637,2.139C184.448,426.713,184.363,426.717,184.274,426.717z
		"/>
	<path style="fill:#C81702;" d="M184.274,350.161c-1.132,0-2.184-0.635-2.705-1.658c-3.967-7.804-10.979-10.17-11.044-10.194
		c-1.597-0.518-2.463-2.232-1.941-3.825s2.24-2.467,3.821-1.941c0.311,0.101,6.32,2.127,11.302,8.197
		c3.886-7.57,13.288-20.817,33.159-26.244c1.597-0.437,3.288,0.51,3.724,2.127c0.441,1.618-0.51,3.284-2.127,3.724
		c-24.76,6.765-31.222,27.441-31.278,27.647c-0.356,1.185-1.403,2.038-2.632,2.151C184.456,350.157,184.367,350.161,184.274,350.161
		z"/>
	<path style="fill:#C81702;" d="M184.274,273.596c-1.132,0-2.184-0.631-2.705-1.654c-3.967-7.804-10.979-10.17-11.048-10.194
		c-1.593-0.522-2.459-2.232-1.937-3.825s2.22-2.467,3.825-1.941c0.307,0.101,6.32,2.127,11.298,8.201
		c3.886-7.574,13.288-20.817,33.159-26.244c1.597-0.441,3.288,0.51,3.724,2.127c0.441,1.618-0.514,3.284-2.127,3.724
		c-24.626,6.725-31.024,26.806-31.282,27.655c-0.36,1.181-1.407,2.03-2.637,2.139C184.448,273.592,184.363,273.596,184.274,273.596z
		"/>
</g>
<g>
</g>
<g>
</g>
<g>
</g>
<g>
</g>
<g>
</g>
<g>
</g>
<g>
</g>
<g>
</g>
<g>
</g>
<g>
</g>
<g>
</g>
<g>
</g>
<g>
</g>
<g>
</g>
<g>
</g>
</svg>
