<svg xmlns="http://www.w3.org/2000/svg" xmlns:xlink="http://www.w3.org/1999/xlink" version="1.1" style="enable-background:new 0 0 512 512;" xml:space="preserve" width="512" height="512"><rect id="backgroundrect" width="100%" height="100%" x="0" y="0" fill="none" stroke="none"/>

























<g class="currentLayer"><title>Layer 1</title><path style="fill:#B88C21;" d="M432.755,487.41c0,13.579-11.011,24.59-24.594,24.59H103.84c-13.579,0-24.594-11.011-24.594-24.59  V96.896c0-13.583,11.015-24.594,24.594-24.594H408.16c13.583,0,24.594,11.011,24.594,24.594L432.755,487.41L432.755,487.41z" id="svg_1" class=""/><rect x="122.08100128173828" y="97.1709976196289" style="fill:#D5D0BB;" width="267.8179931640625" height="386.8659973144531" id="svg_2"/><rect x="120.90453077499677" y="101.20582680143119" style="fill:#F1EBD4;" width="270.1709269118789" height="382.8778723506352" id="svg_3" class=""/><g id="svg_4">
	<path style="fill:#7E7B73;" d="M343.731,98.53c0,13.583-11.011,24.594-24.59,24.594H192.855c-13.579,0-24.59-11.011-24.59-24.594   V72.416c0-13.583,11.011-24.594,24.59-24.594h126.282c13.579,0,24.59,11.011,24.59,24.594V98.53H343.731z" id="svg_5"/>
	<path style="fill:#7E7B73;" d="M255.998,0c-17.004,0-30.789,13.785-30.789,30.793c0,17.004,13.785,30.789,30.789,30.789   c17.008,0,30.793-13.785,30.793-30.789C286.791,13.785,273.006,0,255.998,0z M255.998,44.477c-7.554,0-13.684-6.126-13.684-13.684   s6.13-13.684,13.684-13.684c7.558,0,13.688,6.126,13.688,13.684C269.682,38.347,263.556,44.477,255.998,44.477z" id="svg_6"/>
</g><g id="svg_28">
</g><g id="svg_29">
</g><g id="svg_30">
</g><g id="svg_31">
</g><g id="svg_32">
</g><g id="svg_33">
</g><g id="svg_34">
</g><g id="svg_35">
</g><g id="svg_36">
</g><g id="svg_37">
</g><g id="svg_38">
</g><g id="svg_39">
</g><g id="svg_40">
</g><g id="svg_41">
</g><g id="svg_42">
</g></g></svg>