<svg width="302" height="469.22607" xmlns="http://www.w3.org/2000/svg">
 <metadata id="metadata91">image/svg+xml</metadata>

 <g>
  <title>background</title>
  <rect fill="none" id="canvas_background" height="471.22607" width="304" y="-1" x="-1"/>
 </g>
 <g>
  <title>Layer 1</title>
  <path stroke="#000000" fill="#b88c21" stroke-width="1.87461" id="path2" d="m295,443.296906c0,12.661865 -9.032837,22.929138 -20.175598,22.929138l-249.64879,0c-11.13949,0.000031 -20.175611,-10.267273 -20.175611,-22.929138l0,-364.137955c0,-12.665588 9.036121,-22.93288 20.175611,-22.93288l249.647966,0c11.142761,0 20.175629,10.267292 20.175629,22.93288l0.000793,364.137955z"/>
  <rect fill="#d5d0bb" id="rect4" height="386.866" width="267.81799" y="69.752998" x="15.080502"/>
  <rect fill="#f1ebd4" id="rect6" height="378.172" width="267.81799" y="64.729004" x="15.080502"/>
  <g id="g12">
   <path stroke="#000000" fill="#7e7b73" stroke-width="0.631186" id="path8" d="m238.732986,67.198021c0,5.411407 -11.010986,9.798141 -24.589996,9.798141l-126.286011,0c-13.578995,0 -24.589996,-4.386734 -24.589996,-9.798141l0,-10.403709c0,-5.411407 11.011002,-9.798149 24.589996,-9.798149l126.282013,0c13.578979,0 24.589996,4.386742 24.589996,9.798149l0,10.403709l0.003998,0z"/>
   <path stroke="#000000" fill="#7e7b73" id="path10" d="m150.998001,0c-17.003998,0 -30.789001,13.785 -30.789001,30.792999c0,17.003998 13.785004,30.789001 30.789001,30.789001c17.007996,0 30.792999,-13.785004 30.792999,-30.789001c0,-17.007999 -13.785004,-30.792999 -30.792999,-30.792999zm0,44.476997c-7.554001,0 -13.684006,-6.125996 -13.684006,-13.683998c0,-7.557999 6.130005,-13.683998 13.684006,-13.683998c7.558014,0 13.687988,6.125999 13.687988,13.683998c-0.003998,7.554001 -6.129974,13.683998 -13.687988,13.683998z"/>
  </g>
  <g id="g56"/>
  <g id="g58"/>
  <g id="g60"/>
  <g id="g62"/>
  <g id="g64"/>
  <g id="g66"/>
  <g id="g68"/>
  <g id="g70"/>
  <g id="g72"/>
  <g id="g74"/>
  <g id="g76"/>
  <g id="g78"/>
  <g id="g80"/>
  <g id="g82"/>
  <g id="g84"/>
 </g>
</svg>