<?xml version="1.0" encoding="UTF-8" standalone="no"?>
<svg
   xmlns:dc="http://purl.org/dc/elements/1.1/"
   xmlns:cc="http://creativecommons.org/ns#"
   xmlns:rdf="http://www.w3.org/1999/02/22-rdf-syntax-ns#"
   xmlns:svg="http://www.w3.org/2000/svg"
   xmlns="http://www.w3.org/2000/svg"
   version="1.1"
   id="Layer_1"
   x="0px"
   y="0px"
   viewBox="0 0 290 469.22607"
   xml:space="preserve"
   width="290"
   height="469.22607"><metadata
     id="metadata91"><rdf:RDF><cc:Work
         rdf:about=""><dc:format>image/svg+xml</dc:format><dc:type
           rdf:resource="http://purl.org/dc/dcmitype/StillImage" /><dc:title></dc:title></cc:Work></rdf:RDF></metadata><defs
     id="defs89" /><path
     style="fill:#b88c21;stroke-width:0.87460798"
     d="m 290,446.29692 c 0,12.66186 -9.03284,22.92915 -20.17561,22.92915 H 20.175611 C 9.036121,469.22607 0,458.95878 0,446.29692 V 82.15895 C 0,69.493366 9.036121,59.22607 20.175611,59.22607 H 269.82357 c 11.14277,0 20.17562,10.267296 20.17562,22.93288 z"
     id="path2" /><rect
     x="11.080502"
     y="71.752998"
     style="fill:#d5d0bb"
     width="267.81799"
     height="386.866"
     id="rect4" /><rect
     x="11.080502"
     y="68.729004"
     style="fill:#f1ebd4"
     width="267.81799"
     height="378.172"
     id="rect6" /><g
     id="g12"
     transform="translate(-111.0005,-25.418)"><path
       style="fill:#7e7b73;stroke-width:0.63118601"
       d="m 343.7335,92.616019 c 0,5.411406 -11.011,9.798141 -24.59,9.798141 h -126.286 c -13.579,0 -24.59,-4.386735 -24.59,-9.798141 V 82.212307 c 0,-5.411411 11.011,-9.798147 24.59,-9.798147 h 126.282 c 13.579,0 24.59,4.386736 24.59,9.798147 v 10.403712 z"
       id="path8" /><path
       style="fill:#7e7b73"
       d="m 255.9985,25.418 c -17.004,0 -30.789,13.785 -30.789,30.793 0,17.004 13.785,30.789 30.789,30.789 17.008,0 30.793,-13.785 30.793,-30.789 0,-17.008 -13.785,-30.793 -30.793,-30.793 z m 0,44.477 c -7.554,0 -13.684,-6.126 -13.684,-13.684 0,-7.558 6.13,-13.684 13.684,-13.684 7.558,0 13.688,6.126 13.688,13.684 -0.004,7.554 -6.13,13.684 -13.688,13.684 z"
       id="path10" /></g><g
     id="g56"
     transform="translate(-111.0005,-25.418)" /><g
     id="g58"
     transform="translate(-111.0005,-25.418)" /><g
     id="g60"
     transform="translate(-111.0005,-25.418)" /><g
     id="g62"
     transform="translate(-111.0005,-25.418)" /><g
     id="g64"
     transform="translate(-111.0005,-25.418)" /><g
     id="g66"
     transform="translate(-111.0005,-25.418)" /><g
     id="g68"
     transform="translate(-111.0005,-25.418)" /><g
     id="g70"
     transform="translate(-111.0005,-25.418)" /><g
     id="g72"
     transform="translate(-111.0005,-25.418)" /><g
     id="g74"
     transform="translate(-111.0005,-25.418)" /><g
     id="g76"
     transform="translate(-111.0005,-25.418)" /><g
     id="g78"
     transform="translate(-111.0005,-25.418)" /><g
     id="g80"
     transform="translate(-111.0005,-25.418)" /><g
     id="g82"
     transform="translate(-111.0005,-25.418)" /><g
     id="g84"
     transform="translate(-111.0005,-25.418)" /></svg>