<?xml version="1.0" encoding="utf-8"?>
<!-- Generator: Adobe Illustrator 19.0.0, SVG Export Plug-In . SVG Version: 6.00 Build 0)  -->
<svg version="1.1" id="Layer_1" xmlns="http://www.w3.org/2000/svg" xmlns:xlink="http://www.w3.org/1999/xlink" x="0px" y="0px"
	 viewBox="0 0 96 96" style="enable-background:new 0 0 96 96;" xml:space="preserve">
<style type="text/css">
	.st0{fill:#16A085;}
	.st1{fill:#1ABC9C;}
	.st2{fill:#ECF0F1;}
	.st3{fill:#F39C12;}
	.st4{fill:#F1C40F;}
</style>
<g id="XMLID_1_">
	<rect id="XMLID_3_" x="15.5" y="22.3" class="st0" width="65" height="37.9"/>
	<rect id="XMLID_4_" x="15.5" y="25" class="st1" width="65" height="37.9"/>
	<path id="XMLID_5_" class="st2" d="M29,27.7L29,27.7c0,6-4.9,10.8-10.8,10.8v10.6c6,0,10.8,4.9,10.8,11.1H67V60
		c0-6,4.9-10.8,10.8-10.8V38.6c-6,0-10.8-4.9-10.8-10.8H29z"/>
	<ellipse id="XMLID_6_" class="st1" cx="48" cy="44" rx="10.8" ry="13.5"/>
	<path id="XMLID_7_" class="st2" d="M43.3,37.7l6.7-1.9h0.7v13.5c0,0.8,0.1,1.4,0.2,1.6c0.1,0.3,0.4,0.3,0.8,0.5h2.5v0.5H43.8v-0.5
		h2.5c0.4-0.3,0.6-0.3,0.8-0.5c0.1-0.3,0.2-0.8,0.2-1.6v-8.7c0-1.4-0.1-1.9-0.2-2.4c-0.1-0.3-0.3-0.3-0.5-0.5h-0.9
		c-0.5,0-1.2,0-2.1,0.3L43.3,37.7"/>
	<path id="XMLID_8_" class="st3" d="M26.3,65.6c-2.4,0-4.4,0.5-5.9,1.4h-2.2v0.8v0.4v0.2v0.2v1.2c0,2.2,3.6,4.1,8.1,4.1
		s8.1-1.8,8.1-4.1v-1.2v-0.2v-0.2v-0.4v-0.8h-2.2C30.8,66.1,28.7,65.6,26.3,65.6z"/>
	<ellipse id="XMLID_9_" class="st4" cx="26.3" cy="66.9" rx="8.1" ry="4.1"/>
	<path id="XMLID_10_" class="st3" d="M26.3,60.1c-2.4,0-4.4,0.5-5.9,1.4h-2.2v0.8v0.4v0.2V63v1.2c0,2.2,3.6,4.1,8.1,4.1
		s8.1-1.8,8.1-4.1V63v-0.2v-0.2v-0.4v-0.8h-2.2C30.8,60.7,28.7,60.1,26.3,60.1z"/>
	<ellipse id="XMLID_11_" class="st4" cx="26.3" cy="61.5" rx="8.1" ry="4.1"/>
	<path id="XMLID_12_" class="st3" d="M26.3,54.7c-2.4,0-4.4,0.5-5.9,1.4h-2.2v0.8v0.4v0.2v0.2v1.2c0,2.2,3.6,4.1,8.1,4.1
		s8.1-1.8,8.1-4.1v-1.2v-0.2v-0.2v-0.4v-0.8h-2.2C30.8,55.3,28.7,54.7,26.3,54.7z"/>
	<ellipse id="XMLID_13_" class="st4" cx="26.3" cy="56.1" rx="8.1" ry="4.1"/>
	<path id="XMLID_14_" class="st3" d="M26.3,49.3c-2.4,0-4.4,0.5-5.9,1.4h-2.2v0.8v0.4V52v0.2v1.2c0,2.2,3.6,4.1,8.1,4.1
		s8.1-1.8,8.1-4.1v-1.2V52v-0.2v-0.4v-0.8h-2.2C30.8,49.9,28.7,49.3,26.3,49.3z"/>
	<ellipse id="XMLID_15_" class="st4" cx="26.3" cy="50.6" rx="8.1" ry="4.1"/>
	<path id="XMLID_16_" class="st3" d="M45.3,65.6c-2.4,0-4.4,0.5-5.9,1.4h-2.2v0.8v0.4v0.2v0.2v1.2c0,2.2,3.6,4.1,8.1,4.1
		c4.5,0,8.1-1.8,8.1-4.1v-1.2v-0.2v-0.2v-0.4v-0.8h-2.2C49.7,66.1,47.7,65.6,45.3,65.6z"/>
	<ellipse id="XMLID_17_" class="st4" cx="45.3" cy="66.9" rx="8.1" ry="4.1"/>
	<path id="XMLID_18_" class="st3" d="M50.7,62.9c-2.4,0-4.4,0.5-5.9,1.4h-2.2V65v0.4v0.2v0.2v1.2c0,2.2,3.6,4.1,8.1,4.1
		s8.1-1.8,8.1-4.1v-1.2v-0.2v-0.2V65v-0.8h-2.2C55.2,63.4,53.1,62.9,50.7,62.9z"/>
	<ellipse id="XMLID_19_" class="st4" cx="50.7" cy="64.2" rx="8.1" ry="4.1"/>
	<path id="XMLID_20_" class="st3" d="M26.3,43.9c-2.4,0-4.4,0.5-5.9,1.4h-2.2V46v0.4v0.2v0.2V48c0,2.2,3.6,4.1,8.1,4.1
		s8.1-1.8,8.1-4.1v-1.2v-0.2v-0.2V46v-0.8h-2.2C30.8,44.4,28.7,43.9,26.3,43.9z"/>
	<ellipse id="XMLID_21_" class="st4" cx="26.3" cy="45.2" rx="8.1" ry="4.1"/>
</g>
</svg>
