<?xml version="1.0" encoding="UTF-8" standalone="no"?>
<svg
   xmlns:dc="http://purl.org/dc/elements/1.1/"
   xmlns:cc="http://creativecommons.org/ns#"
   xmlns:rdf="http://www.w3.org/1999/02/22-rdf-syntax-ns#"
   xmlns:svg="http://www.w3.org/2000/svg"
   xmlns="http://www.w3.org/2000/svg"
   xml:space="preserve"
   width="270"
   viewBox="0 0 270 270"
   version="1.1"
   id="Layer_1"
   height="270"
   enable-background="new 0 0 300 300"><metadata
     id="metadata15"><rdf:RDF><cc:Work
         rdf:about=""><dc:format>image/svg+xml</dc:format><dc:type
           rdf:resource="http://purl.org/dc/dcmitype/StillImage" /><dc:title></dc:title></cc:Work></rdf:RDF></metadata><defs
     id="defs13" /><g
     transform="translate(-16.342,-14.8)"
     id="g8"><path
       style="fill:#bf3d27"
       id="path2"
       d="m 151.338,14.8 c -74.557,0 -134.996,60.44 -134.996,135.002 0,74.554 60.439,134.998 134.996,134.998 74.556,0 135.004,-60.443 135.004,-134.998 C 286.342,75.241 225.894,14.8 151.338,14.8 Z m 0,250.914 C 87.325,265.714 35.43,213.813 35.43,149.802 35.43,85.784 87.325,33.891 151.338,33.891 c 64.016,0 115.909,51.894 115.909,115.911 0,64.011 -51.893,115.912 -115.909,115.912 z" /><circle
       style="fill:#bf3d27"
       id="circle4"
       r="104.428"
       cy="149.802"
       cx="151.341" /><polygon
       style="fill:#ffffff"
       id="polygon6"
       points="151.338,181.547 120.541,212.344 88.799,180.6 119.586,149.802 88.799,119.013 120.541,87.256 151.338,118.058 182.131,87.256 213.878,119.013 183.077,149.802 213.878,180.6 182.131,212.344 " /></g></svg>